<svg width="550" height="376" viewBox="0 0 550 376" fill="none" xmlns="http://www.w3.org/2000/svg">
<path d="M4 360.13V15.6694C4 7.9099 9.87776 1.57318 17.3518 0.757842L15.6545 0.683714C7.12152 0.311026 0 7.12829 0 15.6694V360.13C0 368.746 7.24222 375.591 15.8449 375.106L17.2293 375.028C9.82343 374.159 4 367.856 4 360.13Z" fill="#323465"/>
<path fill-rule="evenodd" clip-rule="evenodd" d="M4 15.6694V360.13C4 367.856 9.82343 374.158 17.2293 375.028L535.345 345.799C543.288 345.35 549.5 338.778 549.5 330.822V38.3591C549.5 30.3294 543.177 23.7238 535.155 23.3734L17.3518 0.757812C9.87776 1.57315 4 7.90987 4 15.6694ZM539.12 34.7573L22.1196 14.1245C20.4172 14.0565 19 15.4183 19 17.1221V337.841C19 339.559 20.4392 340.926 22.1544 340.837L539.154 314.187C540.749 314.104 542 312.787 542 311.191V37.755C542 36.1446 540.729 34.8216 539.12 34.7573Z" fill="#585B8E"/>
<path fill-rule="evenodd" clip-rule="evenodd" d="M22.1196 14.1245L539.12 34.7574C540.729 34.8216 542 36.1447 542 37.755V311.191C542 312.787 540.749 314.104 539.154 314.187L22.1544 340.837C20.4392 340.926 19 339.559 19 337.841V17.1221C19 15.4183 20.4172 14.0566 22.1196 14.1245ZM514 53L417 51V135H514V53ZM514 148H417V159H514V148ZM514 163H417V174H514V163ZM514 288H417V299H514V288ZM471.5 272C451.894 272 436 256.106 436 236.5C436 216.894 451.894 201 471.5 201C471.834 201 472.168 201.005 472.5 201.014C484.041 201.333 494.206 207.161 500.459 215.962C504.578 221.759 507 228.847 507 236.5C507 255.772 491.644 271.457 472.5 271.986C472.168 271.995 471.834 272 471.5 272ZM76 45H53V205H76V45ZM116 45H93V205H116V45ZM154 113H132V205H154V113ZM192 80H171V205H192V80ZM230 119H209V205H230V119ZM266 168H245V205H266V168ZM404 237L192 241V308L404 300V237ZM178.018 241.834L53.0176 244.5V312.834L178.018 309V241.834ZM404 216L192 219.5V236L404 233V216ZM302 70H281V203H302V70ZM336 48H315V203H336V48ZM370 132H350V203H370V132ZM404 63H384V203H404V63Z" fill="#D687E2"/>
<path d="M500.459 215.962C494.206 207.161 484.041 201.333 472.5 201.014V235.539L500.459 215.962Z" fill="#FEFDFC"/>
<path d="M498 112H508V119H498V112Z" fill="#FEFDFC"/>
<path d="M486 112H496V119H486V112Z" fill="#FEFDFC"/>
<path d="M474 112H484V119H474V112Z" fill="#FEFDFC"/>
<path d="M461 112H472V119H461V112Z" fill="#FEFDFC"/>
<path d="M448 112H459V119H448V112Z" fill="#FEFDFC"/>
<path d="M435 112H446V119H435V112Z" fill="#FEFDFC"/>
<path d="M422 112H433V119H422V112Z" fill="#FEFDFC"/>
<path d="M422 102H433V109H422V102Z" fill="#FEFDFC"/>
<path d="M435 102H446V109H435V102Z" fill="#FEFDFC"/>
<path d="M448 102H459V109H448V102Z" fill="#FEFDFC"/>
<path d="M461 102H472V109H461V102Z" fill="#FEFDFC"/>
<path d="M474 102H484V109H474V102Z" fill="#FEFDFC"/>
<path d="M486 102H496V109H486V102Z" fill="#FEFDFC"/>
<path d="M498 102H508V109H498V102Z" fill="#FEFDFC"/>
<path d="M498 92H508V99H498V92Z" fill="#FEFDFC"/>
<path d="M486 92H496V99H486V92Z" fill="#FEFDFC"/>
<path d="M474 92H484V99H474V92Z" fill="#FEFDFC"/>
<path d="M461 92H472V99H461V92Z" fill="#FEFDFC"/>
<path d="M448 92H459V99H448V92Z" fill="#FEFDFC"/>
<path d="M422 92H433V99H422V92Z" fill="#FEFDFC"/>
<path d="M435 92H446V99H435V92Z" fill="#FEFDFC"/>
<path d="M448 82H459V89H448V82Z" fill="#FEFDFC"/>
<path d="M461 82H472V89H461V82Z" fill="#FEFDFC"/>
<path d="M474 82H484V89H474V82Z" fill="#FEFDFC"/>
<path d="M486 82H496V89H486V82Z" fill="#FEFDFC"/>
<path d="M498 82H508V89H498V82Z" fill="#FEFDFC"/>
<path d="M421 70.5L509 72V76L421 74.5V70.5Z" fill="#FEFDFC"/>
<path d="M500.459 215.962C494.206 207.161 484.041 201.333 472.5 201.014V235.539L500.459 215.962Z" stroke="white"/>
<path d="M498 112H508V119H498V112Z" stroke="white"/>
<path d="M486 112H496V119H486V112Z" stroke="white"/>
<path d="M474 112H484V119H474V112Z" stroke="white"/>
<path d="M461 112H472V119H461V112Z" stroke="white"/>
<path d="M448 112H459V119H448V112Z" stroke="white"/>
<path d="M435 112H446V119H435V112Z" stroke="white"/>
<path d="M422 112H433V119H422V112Z" stroke="white"/>
<path d="M422 102H433V109H422V102Z" stroke="white"/>
<path d="M435 102H446V109H435V102Z" stroke="white"/>
<path d="M448 102H459V109H448V102Z" stroke="white"/>
<path d="M461 102H472V109H461V102Z" stroke="white"/>
<path d="M474 102H484V109H474V102Z" stroke="white"/>
<path d="M486 102H496V109H486V102Z" stroke="white"/>
<path d="M498 102H508V109H498V102Z" stroke="white"/>
<path d="M498 92H508V99H498V92Z" stroke="white"/>
<path d="M486 92H496V99H486V92Z" stroke="white"/>
<path d="M474 92H484V99H474V92Z" stroke="white"/>
<path d="M461 92H472V99H461V92Z" stroke="white"/>
<path d="M448 92H459V99H448V92Z" stroke="white"/>
<path d="M422 92H433V99H422V92Z" stroke="white"/>
<path d="M435 92H446V99H435V92Z" stroke="white"/>
<path d="M448 82H459V89H448V82Z" stroke="white"/>
<path d="M461 82H472V89H461V82Z" stroke="white"/>
<path d="M474 82H484V89H474V82Z" stroke="white"/>
<path d="M486 82H496V89H486V82Z" stroke="white"/>
<path d="M498 82H508V89H498V82Z" stroke="white"/>
<path d="M421 70.5L509 72V76L421 74.5V70.5Z" stroke="white"/>
<path d="M53.0176 244.5L178.018 241.834V309L53.0176 312.834V244.5Z" fill="#E9C5F3"/>
<path d="M192 241L404 237V300L192 308V241Z" fill="#E9C5F3"/>
<path d="M192 219.5L404 216V233L192 236V219.5Z" fill="#E9C5F3"/>
<path d="M53 45H76V205H53V45Z" fill="#E9C5F3"/>
<path d="M93 45H116V205H93V45Z" fill="#E9C5F3"/>
<path d="M132 113H154V205H132V113Z" fill="#E9C5F3"/>
<path d="M171 80H192V205H171V80Z" fill="#E9C5F3"/>
<path d="M209 119H230V205H209V119Z" fill="#E9C5F3"/>
<path d="M245 168H266V205H245V168Z" fill="#E9C5F3"/>
<path d="M281 70H302V203H281V70Z" fill="#E9C5F3"/>
<path d="M315 48H336V203H315V48Z" fill="#E9C5F3"/>
<path d="M350 132H370V203H350V132Z" fill="#E9C5F3"/>
<path d="M384 63H404V203H384V63Z" fill="#E9C5F3"/>
<path d="M417 288H514V299H417V288Z" fill="#E9C5F3"/>
<path d="M436 236.5C436 256.106 451.894 272 471.5 272C471.834 272 472.168 271.995 472.5 271.986C491.644 271.457 507 255.772 507 236.5C507 228.847 504.578 221.759 500.459 215.962L472.5 235.539V201.014C472.168 201.005 471.834 201 471.5 201C451.894 201 436 216.894 436 236.5Z" fill="#E9C5F3"/>
<path d="M417 163H514V174H417V163Z" fill="#E9C5F3"/>
<path d="M417 148H514V159H417V148Z" fill="#E9C5F3"/>
<path fill-rule="evenodd" clip-rule="evenodd" d="M417 51L514 53V135H417V51ZM509 72L421 70.5V74.5L509 76V72ZM433 92H422V99H433V92ZM433 102H422V109H433V102ZM433 112H422V119H433V112ZM446 92H435V99H446V92ZM446 102H435V109H446V102ZM446 112H435V119H446V112ZM459 92H448V99H459V92ZM459 82H448V89H459V82ZM459 102H448V109H459V102ZM459 112H448V119H459V112ZM472 92H461V99H472V92ZM472 82H461V89H472V82ZM472 102H461V109H472V102ZM472 112H461V119H472V112ZM484 92H474V99H484V92ZM484 82H474V89H484V82ZM484 102H474V109H484V102ZM484 112H474V119H484V112ZM496 92H486V99H496V92ZM496 82H486V89H496V82ZM496 102H486V109H496V102ZM496 112H486V119H496V112ZM508 92H498V99H508V92ZM508 82H498V89H508V82ZM508 102H498V109H508V102ZM508 112H498V119H508V112Z" fill="#E9C5F3"/>
</svg>
