<svg width="111" height="129" viewBox="0 0 111 129" fill="none" xmlns="http://www.w3.org/2000/svg">
<path d="M6.53564 111.702C12.3561 103.143 12.3846 85.025 11.6713 77.0361H98.9782C96.9239 99.6332 101.546 109.562 104.114 111.702C56.8655 126.767 19.3749 117.979 6.53564 111.702Z" fill="#F08B8B"/>
<path d="M27.1957 98.2454C26.6184 99.9587 26.2097 101.744 25.9879 103.583C25.3528 106.717 24.1682 114.013 24.5106 118.122C24.9386 123.257 28.3625 127.109 32.6423 127.109C36.922 127.109 41.2017 121.546 45.9095 125.397C50.6172 129.249 59.1767 129.249 63.0285 125.825C66.8802 122.401 66.8802 126.253 71.16 127.109C75.4397 127.965 83.6121 128.272 84.6616 121.546C85.7111 114.819 85.4197 107.447 84.6616 103.583C84.4399 101.744 84.0312 99.9587 83.4539 98.2454C79.6433 86.9357 68.4901 78.748 55.3248 78.748C42.1594 78.748 31.0063 86.9357 27.1957 98.2454Z" fill="#815038"/>
<path d="M82.0684 62.8026C81.1892 52.2522 77.4282 50.2251 75.6576 50.5304C69.9794 51.08 72.5437 60.0549 72.9101 67.0153C73.2764 73.9756 75.5684 73.6093 77.3061 73.6093C80.6031 73.6093 82.9476 73.353 82.0684 62.8026Z" fill="#892E2E"/>
<path d="M78.0382 54.3763C77.7236 52.3694 76.4942 52.1251 75.8606 52.1832C74.558 52.3026 74.7933 53.785 74.9244 55.109C75.0555 56.4329 75.8287 56.5731 76.4505 56.5731C77.0142 56.5731 78.3528 56.3831 78.0382 54.3763Z" fill="#D9D9D9"/>
<path d="M47.1934 75.3232C47.6202 76.327 48.654 77.0351 49.8616 77.0351H59.9323C61.1398 77.0351 62.1736 76.327 62.6005 75.3232" stroke="#FFAB8E"/>
<path d="M44.1973 105.709C47.9064 104.854 57.6357 103.655 66.8799 105.709V113.413C62.3149 112.7 51.3872 111.701 44.1973 113.413V105.709Z" fill="#A66D51"/>
<path d="M63.4565 106.994H61.3166V109.562H63.4565V108.706V106.994Z" fill="#E09D7C"/>
<path d="M60.0327 106.994H65.1684M60.0327 109.562H64.3125M61.3166 105.71V110.846M63.4565 106.138V110.418M63.0285 108.706H64.7404M60.8887 106.138V107.422M60.4607 109.134V110.418" stroke="#6C412D" stroke-width="0.5"/>
<path fill-rule="evenodd" clip-rule="evenodd" d="M12.9503 79.1149C9.38557 79.98 2.34166 79.2346 2.68404 69.3321C3.02642 59.4296 9.2943 64.0683 12.3854 67.6255C12.5246 66.1453 12.7136 64.6835 12.9503 63.2428C9.10026 60.4257 1.14336 57.3583 0.116224 67.6255C-1.1677 80.4594 8.49794 82.5993 13.7225 80.8874C13.4259 80.3052 13.1679 79.714 12.9503 79.1149Z" fill="#FFD2B8"/>
<path fill-rule="evenodd" clip-rule="evenodd" d="M99.1205 67.6255C102.27 64.6314 108.621 60.4397 108.822 67.6255C109.073 76.6077 102.841 80.7661 98.5556 79.1149C98.2347 79.9984 97.8261 80.8644 97.3351 81.7102C107.063 82.1049 110.106 78.7475 110.962 67.6255C111.646 58.7278 102.976 60.9963 98.5556 63.2428C98.7923 64.6835 98.9813 66.1453 99.1205 67.6255Z" fill="#FFD2B8"/>
<path d="M12.109 74.8684C12.1051 74.6362 12.1024 74.4036 12.1009 74.1706C12.1 74.03 12.0995 73.8892 12.0995 73.7483C12.0995 71.6776 12.1966 69.6345 12.3854 67.6255C9.2943 64.0683 3.02642 59.4296 2.68404 69.3321C2.34166 79.2346 9.38557 79.98 12.9503 79.1149C12.4504 77.7382 12.1633 76.3191 12.109 74.8684Z" fill="#FFCCAE"/>
<path d="M99.405 74.1706C99.4035 74.4035 99.4008 74.6362 99.3969 74.8685C99.3426 76.3191 99.0555 77.7382 98.5556 79.1149C102.841 80.7661 109.073 76.6077 108.822 67.6255C108.621 60.4397 102.27 64.6314 99.1205 67.6255C99.3093 69.6345 99.4064 71.6776 99.4064 73.7483C99.4064 73.8892 99.4059 74.03 99.405 74.1706Z" fill="#FFCCAE"/>
<path d="M47.6215 98.4343C50.0467 100.431 56.4378 103.228 62.6006 98.4343L62.6722 98.1337C79.0453 96.6958 92.3835 90.2375 97.3351 81.7102C97.8261 80.8644 98.2347 79.9984 98.5556 79.1149C99.0555 77.7382 99.3426 76.3191 99.3969 74.8685C99.4008 74.6362 99.4035 74.4035 99.405 74.1706C99.4059 74.03 99.4064 73.8892 99.4064 73.7483C99.4064 71.6776 99.3093 69.6345 99.1205 67.6255C98.9813 66.1453 98.7923 64.6835 98.5556 63.2428C98.2347 61.29 97.8261 59.3759 97.3351 57.5067C91.702 36.0655 75.2148 20.543 55.753 20.543C36.2911 20.543 19.8039 36.0655 14.1708 57.5067C13.6798 59.3759 13.2712 61.29 12.9503 63.2428C12.7136 64.6835 12.5246 66.1453 12.3854 67.6255C12.1966 69.6345 12.0995 71.6776 12.0995 73.7483C12.0995 73.8892 12.1 74.03 12.1009 74.1706C12.1024 74.4036 12.1051 74.6362 12.109 74.8684C12.1633 76.3191 12.4504 77.7382 12.9503 79.1149C13.1679 79.714 13.4259 80.3052 13.7225 80.8874C18.1535 89.5837 31.2209 96.2868 47.4987 98.0047L47.6215 98.4343Z" fill="#FFCCAE"/>
<path d="M101.974 59.7282C102.689 43.6739 99.7453 17.12 56.0082 17.1191C9.37679 17.1182 4.59349 43.4456 10.901 68.997C12.859 60.8439 19.8408 43.6569 32.7599 37.9034C32.4733 39.4191 32.244 43.178 33.6197 46.0881C36.9156 45.6334 45.2271 43.8146 52.1055 40.1769C52.6787 43.0567 55.1148 49.9987 60.2736 54.7276C65.4325 51.8478 76.7819 44.724 80.909 39.2675C85.3513 41.9958 95.5256 51.9994 100.684 70.1878C101.114 69.0708 101.974 65.415 101.974 59.7282Z" fill="#F08B8B"/>
<path d="M6.53564 111.702C12.3561 103.143 12.3846 85.025 11.6713 77.0361H98.9782C96.9239 99.6332 101.546 109.562 104.114 111.702C56.8655 126.767 19.3749 117.979 6.53564 111.702Z" fill="#F08B8B"/>
<path d="M27.1957 98.2454C26.6184 99.9587 26.2097 101.744 25.9879 103.583C25.3528 106.717 24.1682 114.013 24.5106 118.122C24.9386 123.257 28.3625 127.109 32.6423 127.109C36.922 127.109 41.2017 121.546 45.9095 125.397C50.6172 129.249 59.1767 129.249 63.0285 125.825C66.8802 122.401 66.8802 126.253 71.16 127.109C75.4397 127.965 83.6121 128.272 84.6616 121.546C85.7111 114.819 85.4197 107.447 84.6616 103.583C84.4399 101.744 84.0312 99.9587 83.4539 98.2454C79.6433 86.9357 68.4901 78.748 55.3248 78.748C42.1594 78.748 31.0063 86.9357 27.1957 98.2454Z" fill="#815038"/>
<path fill-rule="evenodd" clip-rule="evenodd" d="M12.9503 79.1149C9.38557 79.98 2.34166 79.2346 2.68404 69.3321C3.02642 59.4296 9.2943 64.0683 12.3854 67.6255C12.5246 66.1453 12.7136 64.6835 12.9503 63.2428C9.10026 60.4257 1.14336 57.3583 0.116224 67.6255C-1.1677 80.4594 8.49794 82.5993 13.7225 80.8874C13.4259 80.3052 13.1679 79.714 12.9503 79.1149Z" fill="#FFD2B8"/>
<path fill-rule="evenodd" clip-rule="evenodd" d="M99.1205 67.6255C102.27 64.6314 108.621 60.4397 108.822 67.6255C109.073 76.6077 102.841 80.7661 98.5556 79.1149C98.2347 79.9984 97.8261 80.8644 97.3351 81.7102C107.063 82.1049 110.106 78.7475 110.962 67.6255C111.646 58.7278 102.976 60.9963 98.5556 63.2428C98.7923 64.6835 98.9813 66.1453 99.1205 67.6255Z" fill="#FFD2B8"/>
<path fill-rule="evenodd" clip-rule="evenodd" d="M99.1205 67.6255C74 113.5 12.9503 95 12.3854 67.6255C12.5246 66.1453 12.7136 64.6835 12.9503 63.2428C14.0225 61.8332 14.9524 60.3584 15.9165 58.8293C18.9305 54.0491 22.2792 48.7379 31.3584 43.2256C31.501 44.9375 32.2143 48.7893 33.9262 50.5012C37.4927 50.3585 46.1663 49.1317 52.3291 45.3655C52.4761 45.6594 52.617 45.9433 52.7537 46.2185C54.6068 49.9513 55.6777 52.1085 60.4606 56.4929C63.4565 56.2075 72.4439 53.2402 82.7153 45.3655C86.8559 48.4389 95.8207 56.3171 98.5556 63.2428C98.7923 64.6835 98.9813 66.1453 99.1205 67.6255Z" fill="#FFD2B8"/>
<path d="M82.0684 62.8026C81.1892 52.2522 77.4282 50.2251 75.6576 50.5304C69.9794 51.08 72.5437 60.0549 72.9101 67.0153C73.2764 73.9756 75.5684 73.6093 77.3061 73.6093C80.6031 73.6093 82.9476 73.353 82.0684 62.8026Z" fill="#892E2E"/>
<path d="M78.0382 54.3763C77.7236 52.3694 76.4942 52.1251 75.8606 52.1832C74.558 52.3026 74.7933 53.785 74.9244 55.109C75.0555 56.4329 75.8287 56.5731 76.4505 56.5731C77.0142 56.5731 78.3528 56.3831 78.0382 54.3763Z" fill="#D9D9D9"/>
<path d="M47.1934 75.3232C47.6202 76.327 48.654 77.0351 49.8616 77.0351H59.9323C61.1398 77.0351 62.1736 76.327 62.6005 75.3232" stroke="#FFAB8E"/>
<path d="M44.1973 105.709C47.9064 104.854 57.6357 103.655 66.8799 105.709V113.413C62.3149 112.7 51.3872 111.701 44.1973 113.413V105.709Z" fill="#A66D51"/>
<path d="M63.4565 106.994H61.3166V109.562H63.4565V108.706V106.994Z" fill="#E09D7C"/>
<path d="M60.0327 106.994H65.1684M60.0327 109.562H64.3125M61.3166 105.71V110.846M63.4565 106.138V110.418M63.0285 108.706H64.7404M60.8887 106.138V107.422M60.4607 109.134V110.418" stroke="#6C412D" stroke-width="0.5"/>
<path d="M62.6007 98.4338C56.4378 103.227 50.0468 100.431 47.6216 98.4338L45.0537 89.4463H64.7406L62.6007 98.4338Z" fill="#FFD2B8"/>
<path d="M99.3968 74.8685C99.4007 74.6362 99.4034 74.4035 99.4049 74.1706C99.4058 74.03 99.4063 73.8892 99.4063 73.7483C99.4063 71.6776 99.3092 69.6345 99.1203 67.6255C63.2841 99.8134 26.3652 81.0371 12.3853 67.6255C12.1965 69.6345 12.0994 71.6776 12.0994 73.7483C12.0994 73.8892 12.0998 74.03 12.1007 74.1706C12.1022 74.4036 12.1049 74.6362 12.1089 74.8684C12.1632 76.3191 12.4502 77.7382 12.9502 79.1149C13.1678 79.714 13.4258 80.3052 13.7224 80.8874C18.881 91.0116 35.745 98.4344 55.7528 98.4344C75.2147 98.4344 91.7019 91.4112 97.3349 81.7102C97.826 80.8644 98.2346 79.9984 98.5555 79.1149C99.0554 77.7382 99.3424 76.3191 99.3968 74.8685Z" fill="#FFCCAE"/>
<path d="M12.1089 74.8684C12.1049 74.6362 12.1022 74.4036 12.1007 74.1706C12.0998 74.03 12.0994 73.8892 12.0994 73.7483C12.0994 71.6776 12.1965 69.6345 12.3853 67.6255C9.29418 64.0683 3.0263 59.4296 2.68392 69.3321C2.34154 79.2346 9.38545 79.98 12.9502 79.1149C12.4502 77.7382 12.1632 76.3191 12.1089 74.8684Z" fill="#FFCCAE"/>
<path d="M99.4049 74.1706C99.4034 74.4035 99.4007 74.6362 99.3968 74.8685C99.3424 76.3191 99.0554 77.7382 98.5555 79.1149C102.84 80.7661 109.073 76.6077 108.822 67.6255C108.62 60.4397 102.27 64.6314 99.1203 67.6255C99.3092 69.6345 99.4063 71.6776 99.4063 73.7483C99.4063 73.8892 99.4058 74.03 99.4049 74.1706Z" fill="#FFCCAE"/>
<path d="M97.3349 57.5067C91.7019 36.0655 75.2146 20.543 55.7528 20.543C36.291 20.543 19.8038 36.0655 14.1707 57.5067C13.6797 59.3759 13.2711 61.29 12.9502 63.2428C14.0224 61.8332 14.9523 60.3584 15.9164 58.8293C18.9304 54.0491 22.2791 48.7379 31.3582 43.2256C31.5009 44.9375 32.2142 48.7893 33.9261 50.5012C37.4925 50.3585 46.1662 49.1317 52.329 45.3655C52.476 45.6594 52.6169 45.9433 52.7535 46.2185C54.6066 49.9513 55.6775 52.1085 60.4605 56.4929C63.4563 56.2075 72.4438 53.2402 82.7152 45.3655C86.8558 48.4389 95.8206 56.3171 98.5555 63.2428C98.2346 61.29 97.826 59.3759 97.3349 57.5067Z" fill="#FFCCAE"/>
<path d="M36.9221 30.3864C35.4928 32.4869 34.9969 35.0327 36.7121 41.8746C40.8572 40.6743 50.0907 37.3734 53.8641 33.7724C55.1505 37.5234 58.4951 45.6556 61.5825 48.1763C64.8699 46.0757 73.3315 40.2541 80.8784 33.7724C86.3098 37.6734 98.116 48.3563 101.889 59.8794C102.604 43.8251 99.7453 17.12 56.0082 17.1191C9.17295 17.1182 4.55247 43.6763 10.9844 69.3321C9.12622 60.4796 10.1652 42.9897 36.9221 30.3864Z" fill="#FCC2C2"/>
<path d="M36.629 41.5396C34.9094 34.628 37.3455 28.6562 38.7786 26.5342C11.9526 39.266 8.97204 60.3343 10.835 69.277C12.6979 61.2442 19.6909 43.7235 32.76 37.9032C32.4734 39.4189 32.2441 43.1778 33.6198 46.088C36.9157 45.6333 45.2272 43.8144 52.1056 40.1767C52.6788 43.0566 55.1149 49.9985 60.2737 54.7275C65.4326 51.8476 76.782 44.7238 80.9091 39.2673C85.3514 41.9956 95.5257 51.9992 100.685 70.1876C101.114 69.0706 101.974 65.4148 101.974 59.728C98.1912 48.0874 86.3545 37.2957 80.9091 33.3548C73.3428 39.9027 64.8594 45.7836 61.5635 47.9056C58.4682 45.3592 55.1149 37.1441 53.8252 33.3548C50.0421 36.9925 40.7848 40.3271 36.629 41.5396Z" fill="#F08B8B"/>
<ellipse cx="91.1029" cy="72.7817" rx="3.53275" ry="4.91211" transform="rotate(29.7813 91.1029 72.7817)" fill="#FCB79F"/>
<ellipse cx="3.53275" cy="4.91211" rx="3.53275" ry="4.91211" transform="matrix(-0.867928 0.49669 0.49669 0.867928 19.9443 65.0518)" fill="#FCB79F"/>
<path d="M42.6077 6.01659C39.2335 7.18333 35.7397 8.57755 32.1377 10.2282C28.6347 11.8335 25.7123 13.5931 23.3058 15.4071C19.1787 18.5182 16.5692 21.7893 15.1522 24.7163C11.9271 31.378 14.8788 36.2569 20.1717 33.4088C23.2449 31.7551 26.0165 30.212 28.3577 28.9026L29.3338 28.3564L29.3347 28.3559C30.3718 27.7754 31.3105 27.25 32.1377 26.7922C35.3784 25.6173 43.206 23.2676 48.5907 23.2676C55.3216 23.2676 67.2875 22.7846 74.0184 24.7163C80.7492 26.648 88.2279 26.5274 87.48 22.2414C93.8137 22.4518 95.2252 20.7864 95.7068 18.9209C96.1364 17.2563 96.3192 13.0419 94.2703 9.20724C92.7526 6.36668 90.0103 3.73449 85.2365 2.50148C76.6328 0.27921 63.6301 -0.238688 47.5778 4.43355C47.5059 4.218 47.3723 3.82929 47.1931 3.32754C46.9708 2.70506 46.6784 1.90859 46.3471 1.05294C45.5992 -0.878756 43.3556 0.0870903 41.112 2.01878C40.175 2.82553 40.2842 3.69179 40.7801 4.43355C41.234 5.11267 42.012 5.68742 42.6077 6.01659Z" fill="#7D292B"/>
<path fill-rule="evenodd" clip-rule="evenodd" d="M94.4593 9.20724C96.5082 13.0419 96.3253 17.2563 95.8957 18.9209C93.5573 19.5188 88.6417 18.2987 83.8281 17.1039C81.027 16.4087 78.2604 15.722 76.0564 15.4071C70.0647 14.5511 62.7891 14.1232 54.6576 14.9791C46.5261 15.8351 36.2547 18.9209 23.8434 26.7922C13.9144 33.0893 14.0382 28.0321 15.3412 24.7163C16.7582 21.7893 19.3676 18.5182 23.4948 15.4071C28.3187 13.1246 40.9624 7.87474 52.9457 5.1357C67.4962 1.80986 76.3931 3.23921 83.2293 4.3375C83.4307 4.36985 83.6302 4.40191 83.8281 4.43355C89.3607 5.31837 93.2208 7.98468 94.4593 9.20724ZM47.382 3.32754C44.3006 4.96243 41.8228 4.74609 40.969 4.43355C40.4732 3.69179 40.364 2.82553 41.301 2.01878C43.5446 0.0870901 45.7882 -0.878756 46.5361 1.05294C46.8673 1.90859 47.1597 2.70505 47.382 3.32754Z" fill="#892E30"/>
<path d="M42.7975 6.01669C39.4233 7.18343 35.9295 8.57765 32.3274 10.2283C28.8245 11.8336 25.9021 13.5932 23.4956 15.4072C28.3195 13.1247 40.9632 7.87484 52.9465 5.1358C67.497 1.80996 76.3939 3.23931 83.2301 4.3376C83.4314 4.36995 83.631 4.40201 83.8289 4.43366C89.3615 5.31847 93.2216 7.98478 94.4601 9.20734C92.9423 6.36678 90.2 3.73459 85.4263 2.50158C76.8226 0.279311 63.8198 -0.238587 47.7675 4.43366C46.1417 4.90688 44.4845 5.43335 42.7975 6.01669Z" fill="#7D292B"/>
<path d="M42.7969 6.0162C44.4839 5.43286 46.1411 4.90639 47.7669 4.43317C47.6951 4.21761 47.5614 3.8289 47.3822 3.32715C44.3008 4.96204 41.823 4.7457 40.9692 4.43317C41.4232 5.11228 42.2012 5.68703 42.7969 6.0162Z" fill="#732425"/>
<path d="M35.318 25.1992C41.301 22.3017 55.8098 16.4098 71.9638 19.8868C79.1556 21.4348 84.1654 22.1252 87.669 22.2415C94.0027 22.4519 95.4142 20.7866 95.8957 18.921C93.5573 19.519 88.6417 18.2988 83.8281 17.1041C81.027 16.4088 78.2604 15.7221 76.0564 15.4072C70.0647 14.5513 62.7891 14.1233 54.6576 14.9793C46.5261 15.8352 36.2547 18.921 23.8434 26.7924C13.9144 33.0895 14.0382 28.0322 15.3412 24.7165C12.1161 31.3782 15.0677 36.2571 20.3607 33.4089C23.4338 31.7552 26.2055 30.2121 28.5467 28.9028C28.8809 28.7158 29.2064 28.5336 29.5227 28.3566L29.5236 28.3561C30.5608 27.7756 31.4995 27.2501 32.3266 26.7924C33.608 26.0832 34.6215 25.5365 35.318 25.1992Z" fill="#7A2829"/>
<path d="M71.9639 19.8867C55.8098 16.4096 41.301 22.3016 35.318 25.1991C34.6216 25.5364 33.6081 26.0831 32.3267 26.7922C35.5674 25.6173 43.395 23.2676 48.7797 23.2676C55.5106 23.2676 67.4765 22.7846 74.2074 24.7163C80.9382 26.648 88.4169 26.5274 87.6691 22.2414C84.1654 22.125 79.1556 21.4347 71.9639 19.8867Z" fill="#642224"/>
<path d="M28.5488 61.9461C29.428 51.3957 33.189 49.3687 34.9596 49.6739C40.6378 50.2236 38.0735 59.1985 37.7071 66.1588C37.3408 73.1192 35.0488 72.7528 33.3111 72.7528C30.0141 72.7528 27.6696 72.4966 28.5488 61.9461Z" fill="#892E2E"/>
<path d="M32.578 53.5198C32.8926 51.513 34.122 51.2687 34.7556 51.3267C36.0582 51.4461 35.8229 52.9285 35.6918 54.2525C35.5607 55.5765 34.7875 55.7167 34.1657 55.7167C33.602 55.7167 32.2634 55.5267 32.578 53.5198Z" fill="#D9D9D9"/>
</svg>
