<svg width="104" height="119" viewBox="0 0 104 119" fill="none" xmlns="http://www.w3.org/2000/svg">
<path fill-rule="evenodd" clip-rule="evenodd" d="M22.5461 116.225L23.7927 100.988H77.8997L79.2858 116.235C76.7259 116.842 61.6833 120.31 51.9918 120.375C41.0934 120.449 25.0685 116.814 22.5461 116.225Z" fill="#EBEBEB"/>
<path fill-rule="evenodd" clip-rule="evenodd" d="M77.8997 100.988H23.7927L22.5461 116.225C25.0685 116.814 41.0934 120.449 51.9918 120.375C61.6833 120.31 76.7259 116.842 79.2858 116.235L77.8997 100.988Z" fill="#EBEBEB"/>
<path d="M51.9918 124.605C62.6133 124.533 79.6621 120.375 79.6621 120.375L79.2858 116.236C76.7259 116.842 61.6833 120.31 51.9918 120.375C41.0934 120.449 25.0685 116.814 22.5461 116.226L22.2065 120.375C22.2065 120.375 40.1337 124.686 51.9918 124.605Z" fill="#ECECEC"/>
<path d="M49.3483 99.9307H53.9307L56.0456 119.316C56.0456 119.316 53.4578 121.711 51.8287 121.783C50.01 121.863 47.2334 119.316 47.2334 119.316L49.3483 99.9307Z" fill="#444444"/>
<path d="M51.4636 83.1665C71.9654 83.1665 89.0604 74.3762 92.9378 62.7083C93.1672 62.018 93.3503 61.3177 93.4851 60.6085C93.1675 56.9165 92.582 53.3329 91.7551 49.8933C86.2969 27.1883 70.3214 10.751 51.4636 10.751C32.6058 10.751 16.6303 27.1883 11.1721 49.8933C10.3452 53.3329 9.75968 56.9165 9.44209 60.6085C9.57692 61.3177 9.76005 62.018 9.98943 62.7083C13.8668 74.3762 30.9619 83.1665 51.4636 83.1665Z" fill="#FFD2B8"/>
<path d="M51.4636 93.2332C74.5269 93.2332 93.279 82.1091 93.753 68.2783C93.7568 68.0324 93.7594 67.786 93.7609 67.5393C93.7617 67.3904 93.7622 67.2414 93.7622 67.0922C93.7622 64.8994 93.6681 62.7359 93.4851 60.6085C93.3503 61.3177 93.1672 62.018 92.9378 62.7083C89.0604 74.3762 71.9654 83.1665 51.4636 83.1665C30.9619 83.1665 13.8668 74.3762 9.98943 62.7083C9.76005 62.018 9.57692 61.3177 9.44209 60.6085C9.25908 62.7359 9.16504 64.8994 9.16504 67.0922C9.16504 67.2414 9.16547 67.3904 9.16634 67.5393C9.16778 67.786 9.17041 68.0324 9.17423 68.2783C9.6482 82.1091 28.4003 93.2332 51.4636 93.2332Z" fill="#FFD2B8"/>
<path d="M51.4636 91.1179C74.5269 91.1179 93.279 81.2625 93.753 69.009C93.7568 68.7911 93.7594 68.5728 93.7609 68.3543C93.7617 68.2224 93.7622 68.0903 93.7622 67.9581C93.7622 66.0155 93.6681 64.0987 93.4851 62.2139C93.3503 62.8422 93.1672 63.4627 92.9378 64.0742C89.0604 74.4114 71.9654 82.1992 51.4636 82.1992C30.9619 82.1992 13.8668 74.4114 9.98943 64.0742C9.76005 63.4627 9.57692 62.8422 9.44209 62.2139C9.25908 64.0987 9.16504 66.0155 9.16504 67.9581C9.16504 68.0903 9.16547 68.2224 9.16634 68.3543C9.16778 68.5729 9.17041 68.7911 9.17423 69.009C9.6482 81.2625 28.4003 91.1179 51.4636 91.1179Z" fill="#FFBFA1"/>
<path d="M75.5869 59.9509C74.741 49.7993 71.1221 47.8488 69.4184 48.1426C63.9548 48.6715 66.4222 57.3071 66.7747 64.0044C67.1272 70.7017 69.3326 70.3492 71.0046 70.3492C74.177 70.3492 76.4329 70.1026 75.5869 59.9509Z" fill="#4C2E89"/>
<path d="M71.7095 51.8439C71.4068 49.9129 70.2239 49.6778 69.6142 49.7337C68.3609 49.8486 68.5872 51.2749 68.7134 52.5489C68.8395 53.8228 69.5835 53.9577 70.1818 53.9577C70.7242 53.9577 72.0122 53.7749 71.7095 51.8439Z" fill="#D9D9D9"/>
<path d="M27.3208 59.9509C28.1668 49.7993 31.7856 47.8488 33.4893 48.1426C38.9529 48.6715 36.4855 57.3071 36.133 64.0044C35.7805 70.7017 33.5751 70.3492 31.9031 70.3492C28.7307 70.3492 26.4748 70.1026 27.3208 59.9509Z" fill="#4C2E89"/>
<path d="M31.1982 51.8439C31.5009 49.9129 32.6839 49.6778 33.2935 49.7337C34.5468 49.8486 34.3205 51.2749 34.1944 52.5489C34.0682 53.8228 33.3242 53.9577 32.7259 53.9577C32.1835 53.9577 30.8955 53.7749 31.1982 51.8439Z" fill="#D9D9D9"/>
<ellipse cx="82.1715" cy="64.8503" rx="3.70112" ry="5.9923" transform="rotate(9.3381 82.1715 64.8503)" fill="#FFC2BC"/>
<ellipse cx="3.70112" cy="5.9923" rx="3.70112" ry="5.9923" transform="matrix(-0.986748 0.16226 0.16226 0.986748 22.1084 58.3369)" fill="#FFC2BC"/>
<path d="M51.1105 82.6582L56.2999 89.003H45.921L51.1105 82.6582Z" fill="#FF7173"/>
<path fill-rule="evenodd" clip-rule="evenodd" d="M15.4422 40.8661C15.3636 40.6788 15.293 40.5085 15.2322 40.3599C15.3188 41.2254 15.3923 42.3372 15.4282 43.6071C15.4551 42.6482 15.4575 41.7264 15.4422 40.8661ZM67.3122 8.7977C67.3024 8.82694 67.2915 8.85507 67.2796 8.88207C67.263 8.91965 67.2445 8.95508 67.2242 8.98831C67.2524 8.92399 67.2818 8.86046 67.3122 8.7977Z" fill="#C2E1FC"/>
<path fill-rule="evenodd" clip-rule="evenodd" d="M15.4282 43.6071C15.4551 42.6482 15.4575 41.7264 15.4422 40.8661C15.3636 40.6788 15.293 40.5085 15.2322 40.3599C15.3188 41.2254 15.3923 42.3372 15.4282 43.6071Z" fill="#2A3C4D"/>
<path d="M12.7648 109.624C13.1172 110.564 14.4567 111.985 16.9946 110.152C19.5326 108.319 23.8094 104.454 25.6306 102.75C26.1593 102.163 27.534 101.34 28.803 102.75C30.072 104.16 35.324 107.92 37.7914 109.624C38.6139 110.211 40.8228 111.034 43.0788 109.624C45.3347 108.214 50.8335 104.454 53.3009 102.75C53.7122 102.28 54.8166 101.622 55.9446 102.75C57.0725 103.878 62.4069 107.802 64.933 109.624C65.3443 109.976 66.4487 110.47 67.5767 109.624C68.7046 108.778 73.4515 104.689 75.6839 102.75C76.0951 102.28 77.1996 101.622 78.3276 102.75C79.4555 103.878 84.9073 107.802 87.4923 109.624C87.9458 109.976 88.9136 110.788 89.4309 109.624C89.5963 109.252 89.9749 108.356 90.5099 106.99C90.6954 106.516 90.8997 105.985 91.1205 105.4C92.9777 100.479 95.9986 91.7016 98.7719 80.3671H103.707C103.82 78.3674 103.87 76.0596 103.83 73.5295C103.81 74.7731 103.768 75.9406 103.707 77.0185H98.7719C95.9986 88.353 92.9777 97.13 91.1205 102.052C90.8997 102.637 90.6954 103.167 90.5099 103.641C89.9749 105.008 89.5963 105.903 89.4309 106.275C89.3685 106.415 89.3012 106.531 89.2303 106.626C88.827 107.161 87.9458 106.626 87.4923 106.275C84.9073 104.454 79.4555 100.529 78.3276 99.4015C77.1996 98.2735 76.0951 98.9315 75.6839 99.4015C73.8846 100.964 70.452 103.923 68.5971 105.456C68.1506 105.825 67.7955 106.111 67.5767 106.275C67.0818 106.646 66.5914 106.76 66.1621 106.74C65.613 106.715 65.1638 106.473 64.933 106.275C62.4069 104.454 57.0725 100.529 55.9446 99.4015C54.8166 98.2735 53.7122 98.9315 53.3009 99.4015C50.8335 101.105 45.3347 104.865 43.0788 106.275C42.4453 106.671 41.8156 106.891 41.2193 106.989C39.6917 107.242 38.383 106.698 37.7914 106.275C37.2593 105.908 36.5977 105.445 35.8744 104.93C33.2439 103.059 29.7983 100.507 28.803 99.4015C27.534 97.9915 26.1593 98.814 25.6306 99.4015C23.8094 101.105 19.5326 104.971 16.9946 106.804C15.9506 107.558 15.1094 107.761 14.4563 107.674C13.5217 107.549 12.9722 106.828 12.7648 106.275C12.4833 105.76 12.2074 105.246 11.9369 104.734C11.4312 103.776 10.9447 102.824 10.4767 101.879C3.00202 86.7704 0.26529 73.1745 0.0186109 62.0027C0.00680338 62.53 0.000519504 63.0635 3.08761e-05 63.603C-0.0103746 75.0924 2.60754 89.3217 10.4767 105.227C10.9447 106.173 11.4312 107.125 11.9369 108.082C12.2074 108.595 12.4833 109.108 12.7648 109.624Z" fill="#C2A7FF"/>
<path d="M20.872 45.9997L38.8489 31.1952C41.3868 38.8089 58.4707 42.1223 66.6955 42.8273L67.5767 37.3636C73.5439 38.4926 83.3075 41.9403 88.0256 48.2311C89.3886 50.0485 90.3306 52.1032 90.6382 54.4078C91.1097 50.6998 90.0171 47.5378 88.0256 44.8824C83.3075 38.5917 73.5439 35.1439 67.5767 34.015L66.6955 39.4787C58.4707 38.7737 41.3868 35.4603 38.8489 27.8466L20.872 42.6511C20.2258 43.2385 18.7218 44.061 17.8758 42.6511C17.0299 41.2411 15.7609 38.3037 15.2322 37.0112C15.3323 38.0123 15.415 39.3427 15.4422 40.8661C16.0471 42.3076 17.1271 44.7519 17.8758 45.9997C18.7218 47.4096 20.2258 46.5872 20.872 45.9997Z" fill="#C2A7FF"/>
<path d="M12.941 59.923C14.0913 57.565 14.7528 54.5599 15.105 51.5488C15.4345 48.7318 15.4932 45.9095 15.4282 43.6071C15.3868 45.0804 15.2873 46.6411 15.105 48.2002C14.7528 51.2112 14.0913 54.2163 12.941 56.5743L11.5311 55.3406C11.4957 56.4032 11.5346 57.5693 11.6647 58.8062L12.941 59.923Z" fill="#C2A7FF"/>
<path d="M82.7337 18.153C83.7757 18.1866 85.4484 18.1702 86.7682 17.9916C87.7553 17.858 88.545 17.6337 88.726 17.2718C83.9923 16.5668 80.8287 16.6256 79.8386 16.7432C80.5435 17.0252 82.0624 17.8006 82.7337 18.153Z" fill="#C2A7FF"/>
<path d="M81.5 11.9845C82.2255 11.7636 83.4015 11.0788 84.466 9.7498C85.3841 8.60362 86.2193 6.97834 86.611 4.75845C80.0444 6.45028 77.3625 10.0458 76.8424 11.6321C78.2524 11.6321 80.5349 11.867 81.5 11.9845Z" fill="#C2A7FF"/>
<path d="M57.002 0C56.1208 0.0587278 54.3583 1.62139 54.3583 7.40222C57.9463 8.02698 62.4096 9.31449 65.1679 10.1102C65.8161 10.2971 66.3701 10.457 66.7965 10.5746C67.0544 9.68606 67.1697 9.27242 67.2273 9.06562C67.2548 8.96726 67.2691 8.9157 67.2796 8.88207C67.263 8.91965 67.2445 8.95508 67.2242 8.98831C67.2524 8.92399 67.2818 8.86046 67.3122 8.7977C67.7223 7.57283 66.2053 4.40157 57.002 0Z" fill="#C2A7FF"/>
<path d="M18.3253 15.3068L22.6344 16.743C23.6668 16.3994 27.3531 15.3191 28.904 15.157C26.7891 14.6283 22.1658 13.8881 17.8758 15.157L18.3253 15.3068Z" fill="#C2A7FF"/>
<path d="M4.37867 36.9401L5.89123 37.3636C6.37077 36.5175 7.93098 34.5438 8.8122 34.0151C8.8122 34.0151 7.40225 33.8162 5.11108 34.3676C2.8199 34.9189 1.48513 36.1299 1.48513 36.1299L4.37867 36.9401Z" fill="#C2A7FF"/>
<path fill-rule="evenodd" clip-rule="evenodd" d="M67.3116 8.79778C67.2812 8.86054 67.2519 8.92407 67.2236 8.98838C67.2439 8.95516 67.2625 8.91973 67.2791 8.88215C67.291 8.85514 67.3019 8.82702 67.3116 8.79778C67.2974 8.82984 67.2906 8.8451 67.2791 8.88215C67.2686 8.91577 67.2542 8.96734 67.2268 9.06569C67.1691 9.27249 67.0538 9.68614 66.7959 10.5747C66.3695 10.457 65.8155 10.2972 65.1674 10.1103C62.409 9.31457 57.9457 8.02706 54.3578 7.4023C47.3427 5.62155 31.5941 4.49507 20.6611 12.737C19.6915 13.4679 18.7597 14.2726 17.8753 15.157C22.1653 13.8882 26.7885 14.6283 28.9035 15.157C27.3525 15.3192 23.6663 16.3995 22.6339 16.7431C19.939 17.6994 15.6834 19.7876 11.6055 22.9613C11.1081 23.3484 10.6133 23.7516 10.1244 24.1709C9.90628 24.358 9.68936 24.5482 9.47386 24.7416C6.8678 27.0805 4.47138 29.8857 2.77966 33.144C2.28307 34.1004 1.84721 35.0958 1.48458 36.13C1.48458 36.13 2.81936 34.919 5.11053 34.3677C7.4017 33.8163 8.81166 34.0152 8.81166 34.0152C7.93044 34.5439 6.37022 36.5176 5.89069 37.3637C3.18563 41.8535 0.276704 50.4524 0.0180664 62.0028C0.264746 73.1746 3.00147 86.7705 10.4762 101.879C10.9442 102.825 11.4307 103.776 11.9364 104.734C12.2068 105.246 12.4827 105.76 12.7642 106.275C12.9717 106.828 13.5212 107.549 14.4557 107.674C15.1088 107.761 15.9501 107.558 16.9941 106.804C19.532 104.971 23.8089 101.105 25.6301 99.4016C26.1588 98.8141 27.5335 97.9916 28.8024 99.4016C29.7977 100.507 33.2434 103.059 35.8739 104.93C36.5971 105.445 37.2588 105.908 37.7909 106.275C38.3824 106.698 39.6911 107.242 41.2187 106.989C41.8151 106.891 42.4448 106.671 43.0782 106.275C45.3341 104.865 50.833 101.105 53.3004 99.4016C53.7116 98.9316 54.8161 98.2736 55.944 99.4016C57.072 100.53 62.4063 104.454 64.9325 106.275C65.1633 106.473 65.6124 106.715 66.1616 106.74C66.5908 106.76 67.0812 106.646 67.5761 106.275C67.795 106.111 68.1501 105.825 68.5966 105.456C70.4514 103.923 73.8841 100.964 75.6834 99.4016C76.0946 98.9316 77.1991 98.2736 78.327 99.4016C79.455 100.53 84.9068 104.454 87.4917 106.275C87.9452 106.626 88.8265 107.162 89.2298 106.626C89.3007 106.531 89.368 106.416 89.4304 106.275C89.5957 105.903 89.9743 105.008 90.5093 103.641C90.6948 103.167 90.8992 102.637 91.1199 102.052C92.9772 97.1301 95.998 88.353 98.7713 77.0186H103.706C103.767 75.9406 103.81 74.7731 103.83 73.5296C103.761 69.0662 103.415 63.9113 102.651 58.5361C101.095 47.5887 97.806 35.7276 91.5961 26.9341C89.1281 23.4392 86.1986 20.4289 82.7331 18.1531C82.0618 17.8006 80.543 17.0253 79.838 16.7433C80.8281 16.6257 83.9918 16.5669 88.7254 17.2719C88.9841 16.7544 88.1879 15.6883 86.8528 14.6312C85.4595 13.528 83.4795 12.4345 81.4994 11.9845C80.5344 11.8671 78.2518 11.6322 76.8419 11.6322C77.362 10.0459 80.0439 6.45036 86.6105 4.75853C86.2946 4.70015 85.958 4.6433 85.6039 4.58916C79.9657 3.7272 69.8557 3.54961 67.3116 8.79778C67.3019 8.82702 67.291 8.85514 67.2791 8.88215C67.2906 8.8451 67.2974 8.82984 67.3116 8.79778ZM49.0705 88.8271C18.1926 90.096 11.178 69.264 11.5305 58.6893L11.6642 58.8063C11.5341 57.5694 11.4951 56.4033 11.5305 55.3407L12.9405 56.5744C14.0907 54.2164 14.7522 51.2113 15.1044 48.2003C15.2868 46.6412 15.3862 45.0805 15.4276 43.6072C15.3918 42.3373 15.3182 41.2255 15.2317 40.36C15.2924 40.5086 15.363 40.6789 15.4416 40.8662C15.4145 39.3428 15.3318 38.0124 15.2317 37.0113C15.7604 38.3038 17.0293 41.2412 17.8753 42.6511C18.7212 44.0611 20.2252 43.2386 20.8715 42.6511L38.8484 27.8466C41.3863 35.4604 58.4702 38.7738 66.6949 39.4787L67.5761 34.015C73.5433 35.144 83.3069 38.5918 88.025 44.8825C90.0166 47.5379 91.1092 50.6999 90.6376 54.4079C90.8167 55.7495 90.7808 57.1758 90.4879 58.6893C90.2879 59.7227 90.1019 60.7392 89.9193 61.7373C87.2051 76.5713 85.2346 87.3409 49.0705 88.8271Z" fill="#DFD6FF"/>
<path d="M51.3623 80.5437V72.084C60.3775 73.7817 79.6711 81.546 84.969 99.039C79.4629 98.015 64.9925 92.7687 51.3623 80.5437Z" fill="#DFD6FF"/>
<path d="M51.3623 83.0114V80.5439C64.9925 92.769 79.4629 98.0153 84.969 99.0393C84.9878 99.1013 85.0065 99.1635 85.0249 99.2258C78.3864 100.988 62.3599 100.213 51.3623 83.0114Z" fill="#C2A7FF"/>
<path d="M51.186 80.5437V72.084C42.1708 73.7817 22.8773 81.546 17.5793 99.039C23.0854 98.015 37.5559 92.7687 51.186 80.5437Z" fill="#DFD6FF"/>
<path d="M51.186 83.0114V80.5439C37.5559 92.769 23.0854 98.0153 17.5793 99.0393C17.5605 99.1013 17.5419 99.1635 17.5234 99.2258C24.162 100.988 40.1884 100.213 51.186 83.0114Z" fill="#C2A7FF"/>
<path d="M47.1433 59.5704C47.1433 67.8252 40.6038 74.4611 32.6051 74.4611C24.6064 74.4611 18.0669 67.8252 18.0669 59.5704C18.0669 51.3156 24.6064 44.6797 32.6051 44.6797C40.6038 44.6797 47.1433 51.3156 47.1433 59.5704Z" stroke="#444444" stroke-width="3"/>
<path d="M84.5071 59.5704C84.5071 67.8252 77.9675 74.4611 69.9689 74.4611C61.9702 74.4611 55.4307 67.8252 55.4307 59.5704C55.4307 51.3156 61.9702 44.6797 69.9689 44.6797C77.9675 44.6797 84.5071 51.3156 84.5071 59.5704Z" stroke="#444444" stroke-width="3"/>
<path d="M47.2334 62.2146C48.3819 60.8846 51.6113 59.0226 55.3406 62.2146" stroke="#444444" stroke-width="3"/>
<path d="M47.1433 61.3321C47.1433 69.5869 40.6038 76.2228 32.6051 76.2228C24.6064 76.2228 18.0669 69.5869 18.0669 61.3321C18.0669 53.0773 24.6064 46.4414 32.6051 46.4414C40.6038 46.4414 47.1433 53.0773 47.1433 61.3321Z" stroke="#444444" stroke-opacity="0.1" stroke-width="3"/>
<path d="M47.1433 61.3321C47.1433 69.5869 40.6038 76.2228 32.6051 76.2228C24.6064 76.2228 18.0669 69.5869 18.0669 61.3321C18.0669 53.0773 24.6064 46.4414 32.6051 46.4414C40.6038 46.4414 47.1433 53.0773 47.1433 61.3321Z" stroke="#444444" stroke-opacity="0.1" stroke-width="3"/>
<path d="M84.5071 61.3321C84.5071 69.5869 77.9675 76.2228 69.9689 76.2228C61.9702 76.2228 55.4307 69.5869 55.4307 61.3321C55.4307 53.0773 61.9702 46.4414 69.9689 46.4414C77.9675 46.4414 84.5071 53.0773 84.5071 61.3321Z" stroke="#444444" stroke-opacity="0.1" stroke-width="3"/>
<path d="M47.2334 63.9763C48.3819 62.6463 51.6113 60.7844 55.3406 63.9763" stroke="#444444" stroke-opacity="0.1" stroke-width="3"/>
</svg>
