<svg width="111" height="116" viewBox="0 0 111 116" fill="none" xmlns="http://www.w3.org/2000/svg">
<path d="M6.53564 112.531C12.3561 103.972 12.3846 85.8541 11.6713 77.8652H98.9782C96.9239 100.462 101.546 110.391 104.114 112.531C56.8655 127.596 19.3749 118.808 6.53564 112.531Z" fill="#F08B8B"/>
<path d="M27.1957 99.0745C26.6184 100.788 26.2097 102.573 25.9879 104.412C25.3528 107.546 24.1682 114.842 24.5106 118.951C24.9386 124.087 28.3625 127.938 32.6423 127.938C36.922 127.938 41.2017 122.375 45.9095 126.226C50.6172 130.078 59.1767 130.078 63.0285 126.654C66.8802 123.231 66.8802 127.082 71.16 127.938C75.4397 128.794 83.6121 129.101 84.6616 122.375C85.7111 115.648 85.4197 108.276 84.6616 104.412C84.4399 102.573 84.0312 100.788 83.4539 99.0745C79.6433 87.7648 68.4902 79.5771 55.3248 79.5771C42.1594 79.5771 31.0063 87.7648 27.1957 99.0745Z" fill="#815038"/>
<path fill-rule="evenodd" clip-rule="evenodd" d="M12.9503 79.944C9.38557 80.8091 2.34166 80.0637 2.68404 70.1612C3.02642 60.2588 9.2943 64.8974 12.3854 68.4546C12.5246 66.9744 12.7136 65.5126 12.9503 64.0719C9.10026 61.2548 1.14336 58.1874 0.116224 68.4546C-1.1677 81.2885 8.49795 83.4284 13.7225 81.7165C13.4259 81.1343 13.1679 80.5431 12.9503 79.944Z" fill="#FFD2B8"/>
<path fill-rule="evenodd" clip-rule="evenodd" d="M99.1205 68.4546C102.27 65.4605 108.621 61.2688 108.822 68.4546C109.073 77.4368 102.841 81.5952 98.5556 79.944C98.2347 80.8275 97.8261 81.6936 97.3351 82.5393C107.063 82.934 110.106 79.5766 110.962 68.4546C111.646 59.5569 102.976 61.8254 98.5556 64.0719C98.7923 65.5126 98.9813 66.9744 99.1205 68.4546Z" fill="#FFD2B8"/>
<path fill-rule="evenodd" clip-rule="evenodd" d="M99.1205 68.4546C63.2842 100.643 26.3654 81.8662 12.3854 68.4546C12.5246 66.9744 12.7136 65.5126 12.9503 64.0719C14.0225 62.6623 14.9524 61.1875 15.9165 59.6584C18.9305 54.8782 22.2793 49.567 31.3584 44.0547C31.501 45.7666 32.2143 49.6184 33.9262 51.3303C37.4927 51.1876 46.1663 49.9608 52.3291 46.1946C52.4761 46.4885 52.617 46.7724 52.7537 47.0476C54.6068 50.7804 55.6777 52.9376 60.4606 57.322C63.4565 57.0366 72.4439 54.0693 82.7153 46.1946C86.8559 49.268 95.8207 57.1462 98.5556 64.0719C98.7923 65.5126 98.9813 66.9744 99.1205 68.4546Z" fill="#FFD2B8"/>
<path d="M82.0684 63.6317C81.1892 53.0813 77.4282 51.0542 75.6576 51.3595C69.9794 51.9091 72.5437 60.884 72.9101 67.8444C73.2764 74.8047 75.5684 74.4384 77.3061 74.4384C80.6031 74.4384 82.9476 74.1821 82.0684 63.6317Z" fill="#892E2E"/>
<path d="M78.0382 55.2054C77.7236 53.1985 76.4942 52.9542 75.8606 53.0123C74.558 53.1317 74.7933 54.6141 74.9244 55.9381C75.0555 57.262 75.8287 57.4022 76.4505 57.4022C77.0142 57.4022 78.3528 57.2122 78.0382 55.2054Z" fill="#D9D9D9"/>
<path d="M47.1934 76.1523C47.6202 77.1561 48.654 77.8642 49.8616 77.8642H59.9323C61.1398 77.8642 62.1736 77.1561 62.6005 76.1523" stroke="#FFAB8E"/>
<path d="M44.1973 106.539C47.9064 105.683 57.6357 104.484 66.8799 106.539V114.242C62.3149 113.529 51.3872 112.53 44.1973 114.242V106.539Z" fill="#A66D51"/>
<path d="M63.4565 107.823H61.3166V110.391H63.4565V109.535V107.823Z" fill="#E09D7C"/>
<path d="M60.0327 107.823H65.1684M60.0327 110.391H64.3125M61.3166 106.539V111.675M63.4565 106.967V111.247M63.0285 109.535H64.7404M60.8887 106.967V108.251M60.4607 109.963V111.247" stroke="#6C412D" stroke-width="0.5"/>
<path d="M62.6007 99.2629C56.4378 104.056 50.0468 101.26 47.6216 99.2629L45.0537 90.2754H64.7406L62.6007 99.2629Z" fill="#FFD2B8"/>
<path d="M99.3968 75.6976C99.4007 75.4653 99.4034 75.2326 99.4049 74.9997C99.4058 74.8591 99.4063 74.7183 99.4063 74.5774C99.4063 72.5067 99.3092 70.4636 99.1203 68.4546C63.2841 100.643 26.3652 81.8662 12.3853 68.4546C12.1965 70.4636 12.0994 72.5067 12.0994 74.5774C12.0994 74.7183 12.0998 74.8591 12.1007 74.9997C12.1022 75.2327 12.1049 75.4653 12.1089 75.6975C12.1632 77.1482 12.4502 78.5673 12.9502 79.944C13.1678 80.5431 13.4258 81.1343 13.7224 81.7165C18.881 91.8407 35.745 99.2635 55.7528 99.2635C75.2147 99.2635 91.7019 92.2403 97.3349 82.5393C97.826 81.6936 98.2346 80.8275 98.5555 79.944C99.0554 78.5673 99.3425 77.1482 99.3968 75.6976Z" fill="#FFCCAE"/>
<path d="M12.1089 75.6975C12.1049 75.4653 12.1022 75.2327 12.1007 74.9997C12.0998 74.8591 12.0994 74.7183 12.0994 74.5774C12.0994 72.5067 12.1965 70.4636 12.3853 68.4546C9.29418 64.8974 3.0263 60.2588 2.68392 70.1612C2.34154 80.0637 9.38545 80.8091 12.9502 79.944C12.4502 78.5673 12.1632 77.1482 12.1089 75.6975Z" fill="#FFCCAE"/>
<path d="M99.4049 74.9997C99.4034 75.2326 99.4007 75.4653 99.3968 75.6976C99.3425 77.1482 99.0554 78.5673 98.5555 79.944C102.84 81.5952 109.073 77.4368 108.822 68.4546C108.62 61.2688 102.27 65.4605 99.1203 68.4546C99.3092 70.4636 99.4063 72.5067 99.4063 74.5774C99.4063 74.7183 99.4058 74.8591 99.4049 74.9997Z" fill="#FFCCAE"/>
<path d="M97.3349 58.3358C91.7019 36.8946 75.2147 21.3721 55.7528 21.3721C36.291 21.3721 19.8038 36.8946 14.1707 58.3358C13.6797 60.205 13.2711 62.1191 12.9502 64.0719C14.0224 62.6623 14.9523 61.1875 15.9164 59.6584C18.9304 54.8782 22.2791 49.567 31.3582 44.0547C31.5009 45.7666 32.2142 49.6184 33.9261 51.3303C37.4925 51.1876 46.1662 49.9608 52.329 46.1946C52.476 46.4885 52.6169 46.7724 52.7535 47.0476C54.6066 50.7804 55.6775 52.9376 60.4605 57.322C63.4563 57.0366 72.4438 54.0693 82.7152 46.1946C86.8558 49.268 95.8206 57.1462 98.5555 64.0719C98.2346 62.1191 97.826 60.205 97.3349 58.3358Z" fill="#FFCCAE"/>
<path d="M36.9221 31.2155C35.4928 33.316 34.9969 35.8618 36.7121 42.7037C40.8572 41.5034 50.0907 38.2025 53.8641 34.6015C55.1505 38.3525 58.4951 46.4847 61.5825 49.0054C64.8699 46.9048 73.3315 41.0832 80.8783 34.6015C86.3098 38.5025 98.116 49.1854 101.889 60.7085C102.604 44.6542 99.7453 17.9491 56.0082 17.9482C9.17295 17.9473 4.55247 44.5054 10.9844 70.1612C9.12622 61.3087 10.1652 43.8188 36.9221 31.2155Z" fill="#FCC2C2"/>
<path d="M36.629 42.3687C34.9094 35.4571 37.3455 29.4853 38.7786 27.3633C11.9526 40.0951 8.97204 61.1634 10.835 70.1061C12.6979 62.0733 19.6909 44.5526 32.76 38.7323C32.4734 40.248 32.2441 44.0069 33.6198 46.9171C36.9157 46.4624 45.2271 44.6435 52.1056 41.0058C52.6788 43.8857 55.1149 50.8276 60.2737 55.5566C65.4326 52.6767 76.782 45.5529 80.9091 40.0964C85.3514 42.8247 95.5257 52.8283 100.685 71.0167C101.114 69.8997 101.974 66.2439 101.974 60.5571C98.1912 48.9165 86.3545 38.1248 80.9091 34.1839C73.3428 40.7318 64.8594 46.6127 61.5635 48.7347C58.4682 46.1883 55.1149 37.9732 53.8252 34.1839C50.0421 37.8216 40.7848 41.1562 36.629 42.3687Z" fill="#F08B8B"/>
<ellipse cx="91.1029" cy="73.6108" rx="3.53275" ry="4.91211" transform="rotate(29.7813 91.1029 73.6108)" fill="#FCB79F"/>
<ellipse cx="3.53275" cy="4.91211" rx="3.53275" ry="4.91211" transform="matrix(-0.867928 0.49669 0.49669 0.867928 19.9443 65.8809)" fill="#FCB79F"/>
<path fill-rule="evenodd" clip-rule="evenodd" d="M94.2703 10.0363C96.3192 13.871 96.1364 18.0854 95.7068 19.75C93.3683 20.3479 88.4527 19.1278 83.6391 17.933C80.838 17.2378 78.0715 16.5511 75.8674 16.2362C69.8757 15.3802 62.6002 14.9523 54.4686 15.8082C46.3371 16.6642 36.0657 19.75 23.6545 27.6213C13.7254 33.9184 13.8492 28.8612 15.1522 25.5454C16.5692 22.6185 19.1787 19.3473 23.3058 16.2362C28.1298 13.9537 40.7735 8.70384 52.7567 5.9648C67.3073 2.63896 76.2041 4.06831 83.0403 5.1666C83.2417 5.19895 83.4413 5.23101 83.6391 5.26266C89.1718 6.14747 93.0318 8.81378 94.2703 10.0363ZM47.1931 4.15664C44.1117 5.79153 41.6338 5.57519 40.7801 5.26266C40.2842 4.52089 40.175 3.65463 41.112 2.84788C43.3556 0.916192 45.5992 -0.0496541 46.3471 1.88204C46.6784 2.73769 46.9708 3.53416 47.1931 4.15664Z" fill="#892E30"/>
<path d="M42.6085 6.84579C39.2343 8.01253 35.7405 9.40675 32.1385 11.0574C28.6355 12.6627 25.7131 14.4223 23.3066 16.2363C28.1306 13.9538 40.7742 8.70394 52.7575 5.9649C67.3081 2.63906 76.2049 4.06841 83.0411 5.1667C83.2425 5.19905 83.4421 5.23111 83.6399 5.26276C89.1726 6.14757 93.0326 8.81389 94.2711 10.0364C92.7534 7.19588 90.0111 4.56369 85.2373 3.33068C76.6336 1.10841 63.6309 0.590514 47.5786 5.26276C45.9527 5.73598 44.2956 6.26245 42.6085 6.84579Z" fill="#7D292B"/>
<path d="M42.608 6.8453C44.295 6.26197 45.9521 5.73549 47.578 5.26227C47.5061 5.04671 47.3725 4.658 47.1933 4.15625C44.1119 5.79114 41.634 5.5748 40.7803 5.26227C41.2342 5.94138 42.0122 6.51613 42.608 6.8453Z" fill="#732425"/>
<path d="M35.129 26.0283C41.112 23.1308 55.6208 17.2389 71.7749 20.7159C78.9666 22.2639 83.9764 22.9543 87.48 23.0706C93.8137 23.281 95.2252 21.6157 95.7068 19.7501C93.3683 20.3481 88.4527 19.128 83.6391 17.9332C80.838 17.2379 78.0715 16.5512 75.8674 16.2363C69.8757 15.3804 62.6002 14.9524 54.4686 15.8084C46.3371 16.6643 36.0657 19.7501 23.6545 27.6215C13.7254 33.9186 13.8492 28.8613 15.1522 25.5456C11.9271 32.2073 14.8788 37.0862 20.1717 34.238C23.2449 32.5843 26.0165 31.0413 28.3577 29.7319C28.692 29.5449 29.0174 29.3627 29.3338 29.1857L29.3347 29.1852C30.3718 28.6047 31.3105 28.0792 32.1377 27.6215C33.419 26.9123 34.4326 26.3656 35.129 26.0283Z" fill="#7A2829"/>
<path d="M71.7749 20.7158C55.6209 17.2387 41.112 23.1307 35.1291 26.0282C34.4326 26.3655 33.4191 26.9122 32.1377 27.6213C35.3784 26.4464 43.2061 24.0967 48.5908 24.0967C55.3216 24.0967 67.2876 23.6137 74.0184 25.5454C80.7492 27.4771 88.228 27.3565 87.4801 23.0705C83.9765 22.9541 78.9666 22.2638 71.7749 20.7158Z" fill="#642224"/>
<path d="M28.5488 62.7752C29.428 52.2248 33.189 50.1978 34.9596 50.503C40.6378 51.0527 38.0735 60.0276 37.7071 66.9879C37.3408 73.9483 35.0488 73.5819 33.3111 73.5819C30.0141 73.5819 27.6696 73.3257 28.5488 62.7752Z" fill="#892E2E"/>
<path d="M32.578 54.3489C32.8926 52.3421 34.122 52.0978 34.7556 52.1558C36.0582 52.2752 35.8229 53.7576 35.6918 55.0816C35.5607 56.4056 34.7875 56.5458 34.1657 56.5458C33.602 56.5458 32.2634 56.3558 32.578 54.3489Z" fill="#D9D9D9"/>
</svg>
