<svg width="289" height="289" viewBox="0 0 289 289" fill="none" xmlns="http://www.w3.org/2000/svg">
<path fill-rule="evenodd" clip-rule="evenodd" d="M144.5 0C64.6949 0 0 64.6949 0 144.5C0 193.801 24.69 237.336 62.3798 263.413C64.2222 257.992 70.7497 245.571 82.1202 239.254C96.3333 231.358 98.7022 221.883 87.6475 207.669C76.5929 193.456 78.9617 180.033 90.0164 184.77C101.071 189.508 108.967 198.984 109.757 184.77C110.157 177.566 112.586 161.433 117.148 148.921C116.448 148.829 115.78 148.487 115.289 147.906C114.243 146.667 114.401 144.814 115.642 143.766C116.711 142.863 118.236 142.853 119.306 143.66C123.591 134.442 129.337 128.95 136.604 134.235C153.975 146.869 168.189 202.142 198.984 189.508C229.779 176.874 221.883 116.863 224.251 97.9126C226.62 78.9617 233.389 59.2213 247.771 43.429C221.54 16.6305 184.962 0 144.5 0ZM33.3306 200.55C25.5755 201.762 17.1926 189.332 14.6069 172.786C12.0211 156.241 16.2117 141.846 23.9668 140.634C25.8726 140.336 27.8163 140.862 29.7026 142.071C35.4919 145.78 40.7402 155.918 42.6905 168.397C44.8816 182.418 42.2069 194.894 36.6206 199.113C35.6146 199.873 34.5141 200.365 33.3306 200.55ZM57.9419 237.098C55.1106 239.489 48.9823 236.888 44.2538 231.289C39.5254 225.689 37.9874 219.212 40.8187 216.821C41.2047 216.495 41.6519 216.262 42.1486 216.116C42.3487 216.034 42.5741 215.987 42.8219 215.976C45.1661 215.87 49.5155 218.889 53.4429 223.539C57.2958 228.102 59.5317 232.802 59.1457 235.144C59.0893 235.486 58.977 235.778 58.8057 236.011C58.5855 236.432 58.2983 236.798 57.9419 237.098ZM70.6485 231.709C73.0347 234.535 77.2644 234.888 80.0956 232.497C82.9269 230.106 83.2876 225.877 80.9013 223.051C78.515 220.225 74.2854 219.873 71.4541 222.263C68.6229 224.654 68.2622 228.883 70.6485 231.709ZM74.3039 214.045C76.0923 216.162 79.2622 216.427 81.384 214.635C83.5059 212.843 83.7762 209.674 81.9879 207.556C80.1995 205.438 77.0296 205.174 74.9077 206.966C72.7859 208.757 72.5155 211.927 74.3039 214.045ZM132.277 127.283C133.435 128.654 135.487 128.825 136.86 127.665C138.234 126.505 138.409 124.453 137.251 123.082C136.093 121.711 134.041 121.54 132.668 122.7C131.294 123.86 131.119 125.911 132.277 127.283ZM125.277 107.754C126.434 109.125 128.487 109.296 129.86 108.136C131.234 106.976 131.409 104.925 130.251 103.554C129.093 102.182 127.041 102.011 125.668 103.171C124.294 104.331 124.119 106.383 125.277 107.754ZM173.693 80.6424C174.553 81.6605 176.036 81.8225 177.005 81.0042C177.974 80.1859 178.062 78.6972 177.203 77.6791C176.343 76.661 174.86 76.499 173.891 77.3173C172.922 78.1356 172.834 79.6243 173.693 80.6424ZM219.491 88.5062C220.351 89.5243 221.833 89.6863 222.803 88.868C223.772 88.0497 223.86 86.561 223 85.5429C222.141 84.5248 220.658 84.3628 219.689 85.1811C218.72 85.9994 218.632 87.4881 219.491 88.5062ZM213.174 74.2931C214.034 75.3112 215.517 75.4732 216.486 74.6549C217.455 73.8366 217.543 72.3479 216.683 71.3298C215.824 70.3117 214.341 70.1497 213.372 70.968C212.403 71.7863 212.315 73.275 213.174 74.2931ZM184.748 83.7685C185.608 84.7866 187.09 84.9486 188.059 84.1303C189.028 83.312 189.117 81.8233 188.257 80.8052C187.398 79.7871 185.915 79.6251 184.946 80.4434C183.977 81.2617 183.888 82.7504 184.748 83.7685ZM167.104 104.877C169.678 107.926 174.242 108.307 177.296 105.727C180.351 103.148 180.74 98.5854 178.165 95.5367C175.591 92.4879 171.028 92.1074 167.973 94.6868C164.918 97.2662 164.529 101.829 167.104 104.877ZM19.0788 94.4028C19.2595 98.362 21.3193 101.484 23.6796 101.376C26.0398 101.269 27.8067 97.9719 27.626 94.0127C27.4453 90.0536 25.3855 86.9314 23.0253 87.0391C20.665 87.1468 18.8981 90.4436 19.0788 94.4028ZM16.1606 119.515C15.0851 124.016 15.7717 128.037 17.6943 128.496C19.6169 128.955 22.0474 125.679 23.1229 121.179C24.1985 116.678 23.5118 112.657 21.5892 112.198C19.6666 111.738 17.2361 115.014 16.1606 119.515ZM26.0937 132.865C25.6376 134.774 26.8265 136.693 28.7491 137.153C30.6716 137.612 32.5999 136.438 33.056 134.529C33.5121 132.621 32.3233 130.701 30.4007 130.242C28.4781 129.782 26.5498 130.957 26.0937 132.865ZM35.5691 131.374C35.113 133.283 36.3019 135.202 38.2245 135.662C40.1471 136.121 42.0754 134.946 42.5314 133.038C42.9875 131.129 41.7987 129.21 39.8761 128.75C37.9535 128.291 36.0252 129.465 35.5691 131.374ZM164.164 161.73C166.739 164.779 171.302 165.159 174.357 162.58C177.411 160 177.8 155.438 175.226 152.389C172.651 149.34 168.088 148.96 165.034 151.539C161.979 154.119 161.59 158.681 164.164 161.73ZM189.271 179.975C190.78 181.763 193.455 181.986 195.246 180.474C197.037 178.961 197.265 176.286 195.756 174.499C194.247 172.711 191.571 172.488 189.78 174C187.989 175.513 187.761 178.188 189.271 179.975ZM212.851 97.7952C214.125 99.3031 216.382 99.4913 217.892 98.2156C219.403 96.9398 219.596 94.6833 218.322 93.1754C217.049 91.6675 214.792 91.4793 213.281 92.7551C211.77 94.0308 211.578 96.2874 212.851 97.7952ZM92.2976 178.171C84.7684 179.348 77.1935 170.886 75.3784 159.272C73.5633 147.658 78.1955 137.289 85.7246 136.113C93.0635 134.966 100.446 142.976 102.495 154.137C102.608 154.659 102.708 155.189 102.792 155.728C103.253 158.677 103.214 161.53 102.759 164.098C101.709 171.609 97.7676 177.316 92.2976 178.171ZM32.4373 103.486C44.3055 124.635 87.133 123.144 128.095 100.156C169.057 77.169 192.643 41.3899 180.775 20.2416C168.906 -0.906804 126.079 0.584055 85.1167 23.5715C44.1545 46.5589 20.5692 82.338 32.4373 103.486ZM177.261 131.283C177.001 111.392 186.254 95.1434 197.928 94.9911C209.601 94.8387 219.275 110.84 219.534 130.732C219.7 143.412 216 154.613 210.271 161.106C207.218 165.375 203.31 167.954 199.024 168.01C195.266 168.059 191.75 166.163 188.808 162.874C182.101 156.881 177.44 145.008 177.261 131.283Z" fill="#D9D9D9"/>
<path d="M180.438 137.264C180.215 120.153 188.174 106.176 198.216 106.045C208.258 105.914 216.579 119.679 216.803 136.79C216.931 146.597 214.371 155.374 210.272 161.105C216.001 154.612 219.701 143.412 219.536 130.731C219.276 110.84 209.602 94.838 197.929 94.9903C186.255 95.1427 177.003 111.391 177.262 131.283C177.441 145.008 182.102 156.88 188.81 162.873C183.89 157.371 180.578 147.973 180.438 137.264Z" fill="#A55BF4"/>
<path d="M58.5696 236.265C56.7575 237.795 51.5246 234.579 46.8816 229.08C42.2386 223.582 39.9437 217.884 41.7558 216.354C41.873 216.255 42.0046 216.176 42.1495 216.116C41.6528 216.261 41.2055 216.494 40.8195 216.82C37.9883 219.211 39.5262 225.689 44.2547 231.288C48.9831 236.888 55.1114 239.489 57.9427 237.098C58.2991 236.797 58.5863 236.431 58.8066 236.011C58.7373 236.105 58.6584 236.19 58.5696 236.265Z" fill="#7F0BCC"/>
<path d="M14.6077 172.786C17.1935 189.331 25.5764 201.762 33.3315 200.55C34.515 200.365 35.6154 199.873 36.6215 199.113C30.8322 195.404 25.5839 185.265 23.6336 172.786C21.4424 158.765 24.1172 146.289 29.7035 142.07C27.8172 140.861 25.8734 140.335 23.9676 140.633C16.2125 141.845 12.022 156.24 14.6077 172.786Z" fill="#7F0BCC"/>
<path d="M94.1879 174.989C87.9261 175.968 81.6262 168.931 80.1166 159.272C78.6071 149.612 82.4596 140.989 88.7214 140.01C94.6338 139.086 100.58 145.308 102.496 154.136C100.447 142.975 93.0643 134.965 85.7255 136.112C78.1963 137.289 73.5642 147.658 75.3792 159.272C77.1943 170.886 84.7693 179.347 92.2984 178.17C97.7685 177.316 101.709 171.609 102.76 164.098C101.725 169.94 98.5378 174.309 94.1879 174.989Z" fill="#7F0BCC"/>
<path d="M103.115 242.387C102.045 243.29 100.447 243.157 99.5457 242.089C98.6441 241.022 98.7804 239.424 99.8501 238.52C100.92 237.617 102.518 237.75 103.42 238.818C104.321 239.886 104.185 241.484 103.115 242.387Z" fill="#C898F5"/>
<path d="M128.346 240.531C127.276 241.434 125.678 241.301 124.776 240.233C123.875 239.166 124.011 237.568 125.081 236.664C126.151 235.761 127.749 235.894 128.65 236.962C129.552 238.03 129.416 239.628 128.346 240.531Z" fill="#C898F5"/>
<path d="M149.897 227.818C147.976 229.441 145.105 229.202 143.485 227.283C141.866 225.365 142.11 222.495 144.032 220.872C145.954 219.25 148.825 219.489 150.444 221.407C152.064 223.325 151.819 226.195 149.897 227.818Z" fill="#C898F5"/>
<path d="M136.861 127.664C135.487 128.824 133.435 128.653 132.277 127.282C131.119 125.911 131.294 123.859 132.668 122.699C134.042 121.539 136.094 121.71 137.252 123.082C138.409 124.453 138.234 126.504 136.861 127.664Z" fill="#C898F5"/>
<path d="M115.643 143.766C114.402 144.814 114.244 146.667 115.29 147.905C115.78 148.486 116.448 148.829 117.148 148.921C117.94 149.024 118.771 148.807 119.43 148.251C120.671 147.203 120.829 145.35 119.783 144.111C119.638 143.94 119.478 143.789 119.306 143.66C118.236 142.853 116.712 142.863 115.643 143.766Z" fill="#C898F5"/>
<path d="M129.861 108.136C128.487 109.296 126.435 109.125 125.277 107.754C124.119 106.383 124.294 104.331 125.668 103.171C127.042 102.011 129.094 102.182 130.251 103.553C131.409 104.924 131.234 106.976 129.861 108.136Z" fill="#C898F5"/>
<path d="M177.005 81.0038C176.036 81.8221 174.554 81.6601 173.694 80.642C172.834 79.6239 172.923 78.1352 173.892 77.3169C174.861 76.4986 176.343 76.6606 177.203 77.6787C178.063 78.6968 177.974 80.1855 177.005 81.0038Z" fill="#C898F5"/>
<path d="M188.06 84.1299C187.091 84.9482 185.608 84.7862 184.748 83.7681C183.889 82.75 183.977 81.2613 184.946 80.443C185.915 79.6247 187.398 79.7867 188.258 80.8048C189.117 81.8229 189.029 83.3116 188.06 84.1299Z" fill="#C898F5"/>
<path d="M222.803 88.8676C221.834 89.6859 220.351 89.5239 219.492 88.5058C218.632 87.4877 218.721 85.999 219.69 85.1807C220.659 84.3624 222.141 84.5244 223.001 85.5425C223.861 86.5606 223.772 88.0493 222.803 88.8676Z" fill="#C898F5"/>
<path d="M216.486 74.6545C215.517 75.4728 214.034 75.3108 213.175 74.2927C212.315 73.2746 212.404 71.7859 213.373 70.9676C214.342 70.1493 215.824 70.3113 216.684 71.3294C217.544 72.3475 217.455 73.8362 216.486 74.6545Z" fill="#C898F5"/>
<path d="M73.9204 107.719C72.1691 109.198 69.5528 108.979 68.0768 107.231C66.6007 105.483 66.8238 102.868 68.5751 101.389C70.3264 99.9099 72.9427 100.128 74.4187 101.876C75.8948 103.624 75.6716 106.24 73.9204 107.719Z" fill="#C898F5"/>
<path d="M171.71 41.6126C170.214 42.8758 167.836 42.5205 166.4 40.819C164.963 39.1174 165.011 36.714 166.507 35.4508C168.003 34.1876 170.38 34.5429 171.817 36.2444C173.254 37.946 173.206 40.3494 171.71 41.6126Z" fill="#C898F5"/>
<path d="M219.575 237.337C213.843 245.656 206.649 250.645 203.508 248.48C203.358 248.378 203.221 248.261 203.095 248.13C203.454 248.829 203.938 249.402 204.553 249.825C208.548 252.578 216.526 247.932 222.372 239.447C228.218 230.963 229.718 221.853 225.723 219.1C225.339 218.836 224.918 218.639 224.467 218.508C227.311 220.898 225.179 229.203 219.575 237.337Z" fill="#4A005F"/>
<path d="M264.673 138.736C272.653 137.329 276.489 121.257 273.242 102.837C269.994 84.4179 260.893 70.6264 252.913 72.0333C251.104 72.3522 249.509 73.4245 248.16 75.1069C255.731 75.5921 263.888 88.7702 266.925 105.996C269.436 120.24 267.711 133.081 263.11 138.821C263.634 138.855 264.156 138.827 264.673 138.736Z" fill="#4A005F"/>
<path d="M250.641 200.687C256.493 202.52 264.667 193.054 268.897 179.545C273.128 166.036 271.813 153.599 265.96 151.766C264.97 151.456 263.912 151.469 262.819 151.771C268.657 153.623 269.965 166.049 265.739 179.545C262.225 190.767 255.989 199.2 250.624 200.682L250.641 200.687Z" fill="#4A005F"/>
<path d="M169.76 251.854C165.981 257.339 158.879 259.003 153.898 255.571C148.917 252.139 147.943 244.911 151.722 239.426C155.501 233.941 162.602 232.277 167.584 235.709C172.565 239.141 173.539 246.369 169.76 251.854Z" fill="#5E0086"/>
<path d="M80.116 159.27C81.6255 168.929 87.9255 175.966 94.1873 174.988C98.5372 174.308 101.724 169.939 102.759 164.096C103.155 161.269 103.14 158.186 102.644 155.009C102.598 154.716 102.549 154.424 102.495 154.135C100.58 145.307 94.6331 139.085 88.7207 140.009C82.4589 140.987 78.6064 149.611 80.116 159.27Z" fill="#5E0086"/>
<path d="M36.6208 199.111C42.2071 194.892 44.8818 182.416 42.6907 168.396C40.7404 155.916 35.4921 145.778 29.7028 142.069C24.1165 146.288 21.4418 158.764 23.6329 172.785C25.5832 185.264 30.8315 195.402 36.6208 199.111Z" fill="#5E0086"/>
<path d="M198.215 106.044C188.173 106.175 180.214 120.152 180.437 137.263C180.577 147.972 183.889 157.37 188.809 162.872C191.822 165.564 195.249 167.07 198.868 167.022C203.1 166.967 207.013 164.797 210.271 161.104C214.37 155.373 216.93 146.595 216.802 136.789C216.578 119.678 208.257 105.913 198.215 106.044Z" fill="#5E0086"/>
<path d="M263.109 138.82C267.711 133.08 269.436 120.239 266.925 105.994C263.888 88.7688 255.731 75.5907 248.16 75.1055C243.558 80.8454 241.833 93.6862 244.345 107.931C247.382 125.156 255.538 138.334 263.109 138.82Z" fill="#5E0086"/>
<path d="M247.704 172.907C243.478 186.403 244.786 198.829 250.624 200.681C255.989 199.198 262.225 190.766 265.739 179.544C269.965 166.048 268.657 153.622 262.819 151.77C257.454 153.253 251.218 161.685 247.704 172.907Z" fill="#5E0086"/>
<path d="M203.507 248.479C206.649 250.644 213.843 245.655 219.575 237.336C225.179 229.202 227.311 220.896 224.466 218.507C221.796 217.733 218.032 219.232 214.293 222.354C212.236 224.257 210.133 226.686 208.197 229.496C205.837 232.922 204.092 236.378 203.076 239.409C202.073 242.963 202.044 246.082 203.095 248.128C203.221 248.259 203.358 248.376 203.507 248.479Z" fill="#5E0086"/>
<path d="M80.0958 232.495C77.2646 234.886 73.0349 234.533 70.6486 231.707C68.2623 228.881 68.623 224.652 71.4543 222.262C74.2855 219.871 78.5152 220.223 80.9015 223.049C83.2878 225.875 82.9271 230.104 80.0958 232.495Z" fill="#5E0086"/>
<path d="M81.3842 214.633C79.2623 216.425 76.0925 216.161 74.3041 214.043C72.5157 211.925 72.786 208.756 74.9079 206.964C77.0297 205.172 80.1996 205.436 81.988 207.554C83.7764 209.672 83.5061 212.841 81.3842 214.633Z" fill="#5E0086"/>
<path d="M90.8297 258.729C89.0388 260.241 86.3633 260.018 84.8538 258.231C83.3443 256.443 83.5725 253.768 85.3634 252.256C87.1544 250.743 89.8299 250.966 91.3393 252.754C92.8488 254.541 92.6206 257.217 90.8297 258.729Z" fill="#5E0086"/>
<path d="M119.256 255.57C117.465 257.083 114.789 256.86 113.28 255.072C111.771 253.285 111.999 250.609 113.79 249.097C115.581 247.585 118.256 247.808 119.766 249.595C121.275 251.383 121.047 254.058 119.256 255.57Z" fill="#5E0086"/>
<path d="M156.809 174.478C155.739 175.382 154.141 175.249 153.239 174.181C152.338 173.113 152.474 171.515 153.544 170.612C154.614 169.709 156.212 169.842 157.113 170.91C158.015 171.977 157.879 173.575 156.809 174.478Z" fill="#5E0086"/>
<path d="M188.742 219.248C186.951 220.76 184.276 220.537 182.766 218.75C181.257 216.962 181.485 214.287 183.276 212.775C185.067 211.262 187.742 211.486 189.252 213.273C190.761 215.061 190.533 217.736 188.742 219.248Z" fill="#5E0086"/>
<path d="M195.247 180.472C193.456 181.984 190.78 181.761 189.271 179.974C187.761 178.186 187.989 175.511 189.78 173.999C191.571 172.486 194.247 172.709 195.756 174.497C197.266 176.284 197.037 178.96 195.247 180.472Z" fill="#5E0086"/>
<path d="M174.357 162.578C171.302 165.157 166.739 164.777 164.164 161.728C161.59 158.679 161.979 154.117 165.034 151.537C168.088 148.958 172.652 149.339 175.226 152.387C177.801 155.436 177.411 159.999 174.357 162.578Z" fill="#5E0086"/>
<path d="M177.296 105.726C174.242 108.305 169.678 107.924 167.104 104.876C164.529 101.827 164.919 97.2644 167.973 94.685C171.028 92.1056 175.591 92.4861 178.165 95.5349C180.74 98.5836 180.351 103.146 177.296 105.726Z" fill="#5E0086"/>
<path d="M217.892 98.2138C216.382 99.4895 214.125 99.3013 212.851 97.7934C211.578 96.2855 211.771 94.029 213.281 92.7532C214.792 91.4775 217.049 91.6657 218.322 93.1736C219.596 94.6815 219.403 96.938 217.892 98.2138Z" fill="#5E0086"/>
<path d="M17.6945 128.494C15.7719 128.035 15.0852 124.014 16.1608 119.513C17.2363 115.012 19.6668 111.736 21.5894 112.196C23.512 112.655 24.1986 116.676 23.1231 121.177C22.0475 125.678 19.6171 128.954 17.6945 128.494Z" fill="#5E0086"/>
<path d="M23.6798 101.375C21.3195 101.482 19.2597 98.3601 19.079 94.401C18.8983 90.4418 20.6652 87.145 23.0254 87.0373C25.3857 86.9295 27.4455 90.0518 27.6262 94.0109C27.8069 97.9701 26.04 101.267 23.6798 101.375Z" fill="#5E0086"/>
<path d="M28.7492 137.151C26.8266 136.692 25.6378 134.772 26.0939 132.863C26.55 130.955 28.4783 129.78 30.4008 130.24C32.3234 130.699 33.5123 132.619 33.0562 134.527C32.6001 136.436 30.6718 137.611 28.7492 137.151Z" fill="#5E0086"/>
<path d="M38.2246 135.66C36.302 135.2 35.1132 133.281 35.5693 131.372C36.0254 129.464 37.9537 128.289 39.8763 128.748C41.7988 129.208 42.9877 131.127 42.5316 133.036C42.0755 134.944 40.1472 136.119 38.2246 135.66Z" fill="#5E0086"/>
<path d="M46.881 229.079C51.524 234.577 56.7568 237.794 58.5689 236.264C58.6577 236.189 58.7366 236.104 58.8059 236.009C58.9461 235.742 59.0592 235.452 59.1458 235.142C59.5319 232.8 57.2959 228.1 53.443 223.538C49.5157 218.887 45.1663 215.868 42.8221 215.974C42.589 216.005 42.3643 216.051 42.1488 216.115C42.004 216.174 41.8724 216.254 41.7551 216.353C39.943 217.883 42.238 223.581 46.881 229.079Z" fill="#5E0086"/>
<path d="M107.176 47.7276C87.9527 57.0617 70.0416 59.8342 67.1698 53.92C64.2981 48.0059 77.5532 35.6448 96.776 26.3107C115.999 16.9766 133.91 14.2041 136.782 20.1183C139.653 26.0324 126.398 38.3935 107.176 47.7276Z" fill="url(#paint0_linear_251_28)"/>
<path d="M59.0009 69.8241C55.434 71.5561 51.2125 70.2214 49.572 66.8429C47.9315 63.4644 49.4931 59.3215 53.06 57.5895C56.627 55.8575 60.8484 57.1922 62.4889 60.5707C64.1294 63.9492 62.5678 68.0921 59.0009 69.8241Z" fill="url(#paint1_linear_251_28)"/>
<path fill-rule="evenodd" clip-rule="evenodd" d="M128.095 100.157C87.1332 123.144 44.3057 124.635 32.4376 103.487C20.5694 82.3384 44.1547 46.5593 85.1169 23.5719C126.079 0.584439 168.907 -0.90642 180.775 20.2419C192.643 41.3903 169.058 77.1694 128.095 100.157ZM68.0766 107.232C69.5526 108.98 72.1689 109.198 73.9202 107.719C75.6715 106.241 75.8946 103.625 74.4185 101.877C72.9425 100.129 70.3262 99.9107 68.5749 101.39C66.8236 102.868 66.6005 105.484 68.0766 107.232ZM166.399 40.8198C167.836 42.5213 170.214 42.8766 171.71 41.6134C173.206 40.3502 173.254 37.9467 171.817 36.2452C170.38 34.5437 168.002 34.1884 166.506 35.4516C165.011 36.7148 164.963 39.1182 166.399 40.8198ZM67.1705 53.9213C70.0422 59.8354 87.9534 57.063 107.176 47.7289C126.399 38.3948 139.654 26.0337 136.782 20.1195C133.911 14.2054 115.999 16.9778 96.7766 26.3119C77.5538 35.646 64.2987 48.0072 67.1705 53.9213ZM49.5726 66.8442C51.2131 70.2226 55.4346 71.5574 59.0015 69.8254C62.5684 68.0934 64.1301 63.9505 62.4896 60.572C60.8491 57.1935 56.6276 55.8588 53.0607 57.5908C49.4938 59.3228 47.9321 63.4657 49.5726 66.8442Z" fill="url(#paint2_linear_251_28)"/>
<path fill-rule="evenodd" clip-rule="evenodd" d="M144.5 0C64.6949 0 0 64.6949 0 144.5C0 193.801 24.69 237.336 62.3798 263.413C64.2222 257.992 70.7497 245.571 82.1202 239.254C96.3333 231.358 98.7022 221.883 87.6475 207.669C76.5929 193.456 78.9617 180.033 90.0164 184.77C101.071 189.508 108.967 198.984 109.757 184.77C110.157 177.566 112.586 161.433 117.148 148.921C116.448 148.829 115.78 148.487 115.289 147.906C114.243 146.667 114.401 144.814 115.642 143.766C116.711 142.863 118.236 142.853 119.306 143.66C123.591 134.442 129.337 128.95 136.604 134.235C153.975 146.869 168.189 202.142 198.984 189.508C229.779 176.874 221.883 116.863 224.251 97.9126C226.62 78.9617 233.389 59.2213 247.771 43.429C221.54 16.6305 184.962 0 144.5 0ZM33.3306 200.55C25.5755 201.762 17.1926 189.332 14.6069 172.786C12.0211 156.241 16.2117 141.846 23.9668 140.634C25.8726 140.336 27.8163 140.862 29.7026 142.071C35.4919 145.78 40.7402 155.918 42.6905 168.397C44.8816 182.418 42.2069 194.894 36.6206 199.113C35.6146 199.873 34.5141 200.365 33.3306 200.55ZM102.792 155.728C103.253 158.677 103.214 161.53 102.759 164.098C101.709 171.609 97.7676 177.316 92.2976 178.171C84.7684 179.348 77.1935 170.886 75.3784 159.272C73.5633 147.658 78.1955 137.289 85.7246 136.113C93.0635 134.966 100.446 142.976 102.495 154.137C102.608 154.659 102.708 155.189 102.792 155.728ZM57.9419 237.098C55.1106 239.489 48.9823 236.888 44.2538 231.289C39.5254 225.689 37.9874 219.212 40.8187 216.821C41.2047 216.495 41.6519 216.262 42.1486 216.116C42.3487 216.034 42.5741 215.987 42.8219 215.976C45.1661 215.87 49.5155 218.889 53.4429 223.539C57.2958 228.102 59.5317 232.802 59.1457 235.144C59.0893 235.486 58.977 235.778 58.8057 236.011C58.5855 236.432 58.2983 236.798 57.9419 237.098ZM70.6485 231.709C73.0347 234.535 77.2644 234.888 80.0956 232.497C82.9269 230.106 83.2876 225.877 80.9013 223.051C78.515 220.225 74.2854 219.873 71.4541 222.263C68.6229 224.654 68.2622 228.883 70.6485 231.709ZM74.3039 214.045C76.0923 216.162 79.2622 216.427 81.384 214.635C83.5059 212.843 83.7762 209.674 81.9879 207.556C80.1995 205.438 77.0296 205.174 74.9077 206.966C72.7859 208.757 72.5155 211.927 74.3039 214.045ZM132.277 127.283C133.435 128.654 135.487 128.825 136.86 127.665C138.234 126.505 138.409 124.453 137.251 123.082C136.093 121.711 134.041 121.54 132.668 122.7C131.294 123.86 131.119 125.911 132.277 127.283ZM125.277 107.754C126.434 109.125 128.487 109.296 129.86 108.136C131.234 106.976 131.409 104.925 130.251 103.554C129.093 102.182 127.041 102.011 125.668 103.171C124.294 104.331 124.119 106.383 125.277 107.754ZM173.693 80.6424C174.553 81.6605 176.036 81.8225 177.005 81.0042C177.974 80.1859 178.062 78.6972 177.203 77.6791C176.343 76.661 174.86 76.499 173.891 77.3173C172.922 78.1356 172.834 79.6243 173.693 80.6424ZM219.491 88.5062C220.351 89.5243 221.833 89.6863 222.803 88.868C223.772 88.0497 223.86 86.561 223 85.5429C222.141 84.5248 220.658 84.3628 219.689 85.1811C218.72 85.9994 218.632 87.4881 219.491 88.5062ZM213.174 74.2931C214.034 75.3112 215.517 75.4732 216.486 74.6549C217.455 73.8366 217.543 72.3479 216.683 71.3298C215.824 70.3117 214.341 70.1497 213.372 70.968C212.403 71.7863 212.315 73.275 213.174 74.2931ZM184.748 83.7685C185.608 84.7866 187.09 84.9486 188.059 84.1303C189.028 83.312 189.117 81.8233 188.257 80.8052C187.398 79.7871 185.915 79.6251 184.946 80.4434C183.977 81.2617 183.888 82.7504 184.748 83.7685ZM167.104 104.877C169.678 107.926 174.242 108.307 177.296 105.727C180.351 103.148 180.74 98.5854 178.165 95.5367C175.591 92.4879 171.028 92.1074 167.973 94.6868C164.918 97.2662 164.529 101.829 167.104 104.877ZM19.0788 94.4028C19.2595 98.362 21.3193 101.484 23.6796 101.376C26.0398 101.269 27.8067 97.9719 27.626 94.0127C27.4453 90.0536 25.3855 86.9314 23.0253 87.0391C20.665 87.1468 18.8981 90.4436 19.0788 94.4028ZM16.1606 119.515C15.0851 124.016 15.7717 128.037 17.6943 128.496C19.6169 128.955 22.0474 125.679 23.1229 121.179C24.1985 116.678 23.5118 112.657 21.5892 112.198C19.6666 111.738 17.2361 115.014 16.1606 119.515ZM26.0937 132.865C25.6376 134.774 26.8265 136.693 28.7491 137.153C30.6716 137.612 32.5999 136.438 33.056 134.529C33.5121 132.621 32.3233 130.701 30.4007 130.242C28.4781 129.782 26.5498 130.957 26.0937 132.865ZM35.5691 131.374C35.113 133.283 36.3019 135.202 38.2245 135.662C40.1471 136.121 42.0754 134.946 42.5314 133.038C42.9875 131.129 41.7987 129.21 39.8761 128.75C37.9535 128.291 36.0252 129.465 35.5691 131.374ZM164.164 161.73C166.739 164.779 171.302 165.159 174.357 162.58C177.411 160 177.8 155.438 175.226 152.389C172.651 149.34 168.088 148.96 165.034 151.539C161.979 154.119 161.59 158.681 164.164 161.73ZM189.271 179.975C190.78 181.763 193.455 181.986 195.246 180.474C197.037 178.961 197.265 176.286 195.756 174.499C194.247 172.711 191.571 172.488 189.78 174C187.989 175.513 187.761 178.188 189.271 179.975ZM212.851 97.7952C214.125 99.3031 216.382 99.4913 217.892 98.2156C219.403 96.9398 219.596 94.6833 218.322 93.1754C217.049 91.6675 214.792 91.4793 213.281 92.7551C211.77 94.0308 211.578 96.2874 212.851 97.7952ZM210.271 161.106C207.218 165.375 203.31 167.954 199.024 168.01C195.266 168.059 191.75 166.163 188.808 162.874C182.101 156.881 177.44 145.008 177.261 131.283C177.001 111.392 186.254 95.1434 197.928 94.9911C209.601 94.8387 219.275 110.84 219.534 130.732C219.7 143.412 216 154.613 210.271 161.106ZM32.4373 103.486C44.3055 124.635 87.133 123.144 128.095 100.156C169.057 77.169 192.643 41.3899 180.775 20.2416C168.906 -0.906804 126.079 0.584055 85.1167 23.5715C44.1545 46.5589 20.5692 82.338 32.4373 103.486Z" fill="url(#paint3_linear_251_28)"/>
<path fill-rule="evenodd" clip-rule="evenodd" d="M144.499 288.999C224.304 288.999 288.999 224.304 288.999 144.499C288.999 105.156 273.276 69.4851 247.77 43.4277C233.388 59.2201 226.619 78.9605 224.25 97.9113C221.882 116.862 229.778 176.873 198.983 189.507C168.188 202.141 153.975 146.868 136.603 134.234C129.336 128.949 123.59 134.441 119.305 143.659C119.477 143.788 119.637 143.939 119.782 144.11C120.828 145.349 120.669 147.202 119.429 148.25C118.77 148.806 117.938 149.024 117.147 148.92C112.586 161.432 110.156 177.564 109.756 184.769C108.966 198.982 101.07 189.507 90.0155 184.769C78.9609 180.032 76.592 193.455 87.6467 207.668C98.7013 221.881 96.3325 231.357 82.1193 239.253C70.7489 245.57 64.2213 257.991 62.3789 263.412C85.6987 279.547 113.995 288.999 144.499 288.999ZM203.094 248.129C201.662 246.641 201.741 243.391 203.075 239.41C203.956 236.29 205.589 232.835 207.902 229.477C209.868 226.624 212.076 224.204 214.292 222.354C218.325 218.624 222.183 216.92 224.263 218.354C224.333 218.402 224.401 218.453 224.465 218.508C224.917 218.639 225.338 218.835 225.722 219.099C229.717 221.852 228.217 230.962 222.371 239.446C216.525 247.931 208.547 252.577 204.552 249.825C203.937 249.401 203.453 248.828 203.094 248.129ZM153.897 255.572C158.878 259.004 165.98 257.34 169.759 251.855C173.538 246.37 172.564 239.141 167.582 235.709C162.601 232.277 155.5 233.942 151.721 239.426C147.942 244.911 148.916 252.14 153.897 255.572ZM143.484 227.283C145.104 229.201 147.974 229.44 149.896 227.817C151.818 226.195 152.063 223.324 150.443 221.406C148.823 219.488 145.952 219.249 144.031 220.871C142.109 222.494 141.864 225.365 143.484 227.283ZM124.775 240.232C125.677 241.3 127.275 241.433 128.345 240.53C129.414 239.627 129.551 238.029 128.649 236.961C127.747 235.894 126.149 235.76 125.08 236.664C124.01 237.567 123.874 239.165 124.775 240.232ZM99.5444 242.089C100.446 243.156 102.044 243.289 103.114 242.386C104.184 241.483 104.32 239.885 103.418 238.817C102.517 237.75 100.919 237.616 99.8488 238.52C98.7791 239.423 98.6428 241.021 99.5444 242.089ZM153.238 174.181C154.14 175.249 155.738 175.382 156.808 174.479C157.878 173.576 158.014 171.978 157.112 170.91C156.211 169.842 154.613 169.709 153.543 170.613C152.473 171.516 152.337 173.114 153.238 174.181ZM182.765 218.75C184.275 220.538 186.95 220.761 188.741 219.249C190.532 217.736 190.76 215.061 189.251 213.274C187.741 211.486 185.066 211.263 183.275 212.775C181.484 214.288 181.256 216.963 182.765 218.75ZM113.279 255.073C114.788 256.86 117.464 257.083 119.255 255.571C121.046 254.059 121.274 251.384 119.765 249.596C118.255 247.809 115.58 247.585 113.789 249.098C111.998 250.61 111.77 253.285 113.279 255.073ZM84.8528 258.231C86.3622 260.019 89.0377 260.242 90.8286 258.729C92.6196 257.217 92.8477 254.542 91.3383 252.755C89.8288 250.967 87.1533 250.744 85.3624 252.256C83.5715 253.769 83.3433 256.444 84.8528 258.231ZM268.896 179.544C264.666 193.054 256.492 202.519 250.64 200.687L250.623 200.681C244.785 198.83 243.477 186.404 247.703 172.908C251.217 161.685 257.453 153.253 262.818 151.771C263.911 151.468 264.969 151.455 265.959 151.765C271.812 153.598 273.127 166.035 268.896 179.544ZM273.24 102.837C276.488 121.256 272.652 137.328 264.672 138.735C264.155 138.826 263.633 138.854 263.108 138.82C255.537 138.335 247.381 125.157 244.344 107.931C241.832 93.6868 243.557 80.846 248.159 75.1061C249.507 73.4237 251.103 72.3514 252.912 72.0325C260.892 70.6256 269.993 84.4171 273.24 102.837Z" fill="url(#paint4_linear_251_28)"/>
<defs>
<linearGradient id="paint0_linear_251_28" x1="84.4889" y1="38.6901" x2="268.47" y2="52.1136" gradientUnits="userSpaceOnUse">
<stop stop-color="#E5D3FF"/>
<stop offset="1" stop-color="#7F52BE"/>
</linearGradient>
<linearGradient id="paint1_linear_251_28" x1="84.4889" y1="38.6901" x2="268.47" y2="52.1136" gradientUnits="userSpaceOnUse">
<stop stop-color="#E5D3FF"/>
<stop offset="1" stop-color="#7F52BE"/>
</linearGradient>
<linearGradient id="paint2_linear_251_28" x1="63.9592" y1="41.0607" x2="293.738" y2="41.0608" gradientUnits="userSpaceOnUse">
<stop stop-color="#A55DF2"/>
<stop offset="1" stop-color="#5F368C"/>
</linearGradient>
<linearGradient id="paint3_linear_251_28" x1="-15.0027" y1="193.456" x2="462.716" y2="-97.123" gradientUnits="userSpaceOnUse">
<stop stop-color="#A036F1"/>
<stop offset="1" stop-color="#540D8A"/>
</linearGradient>
<linearGradient id="paint4_linear_251_28" x1="72.6439" y1="315.846" x2="422.444" y2="-102.651" gradientUnits="userSpaceOnUse">
<stop stop-color="#8B2AE0"/>
<stop offset="1" stop-color="#3D086B"/>
</linearGradient>
</defs>
</svg>
