<svg width="650" height="650" viewBox="0 0 650 650" fill="none" xmlns="http://www.w3.org/2000/svg">
<path d="M325 0C302.563 0 280.657 2.27364 259.5 6.60308C196.603 19.474 140.324 50.514 96.3868 94C66.1036 123.972 41.6834 159.857 25 199.78C15.3181 222.949 8.24193 247.477 4.13763 273C1.41485 289.932 0 307.301 0 325C0 349.565 2.72541 373.494 7.89036 396.5C13.0994 419.703 20.7899 441.967 30.6684 463C31.851 465.518 33.0649 468.018 34.3096 470.5C34.6086 471.096 34.9094 471.691 35.212 472.285C41.9811 485.577 49.6378 498.342 58.1041 510.5C85.0444 549.189 120.182 581.744 161 605.648C170.377 611.139 180.054 616.174 190 620.722C194.61 622.83 199.278 624.833 204 626.729C241.399 641.74 282.235 650 325 650C337.683 650 350.196 649.274 362.5 647.86C373.682 646.575 384.692 644.723 395.5 642.332C416.502 637.687 436.741 631.01 456 622.518C557.317 577.843 631.503 482.932 647 369.344C647.872 362.953 648.558 356.503 649.053 350C649.68 341.749 650 333.412 650 325C650 277.225 639.691 231.857 621.177 191C616.751 181.233 611.856 171.723 606.521 162.5C606.335 162.179 606.148 161.857 605.961 161.537C603.789 157.81 601.544 154.13 599.229 150.5C594.3 142.772 589.055 135.265 583.509 128C577.293 119.856 570.701 112.014 563.759 104.5C557.149 97.3466 550.222 90.4908 543 83.9551C537.807 79.2555 532.461 74.7214 526.971 70.3611C513.627 59.7624 499.43 50.1906 484.5 41.765C437.381 15.1735 382.962 0 325 0Z" fill="#AF52E5"/>
<path d="M649.053 350C629.369 362 585.3 392.7 566.5 419.5C543 453 518 487.5 499 499C480 510.5 445 527.5 347.5 524C364.667 527.5 413.4 532.4 471 524C543 513.5 577 392.188 647 369.344C647.872 362.953 648.558 356.503 649.053 350Z" fill="#9631D1"/>
<path d="M58.1042 510.5C72.7361 486.5 115.1 438.3 167.5 437.5C233 436.5 274 457 362.5 470.5C451 484 520 439.5 530.5 356.5C541 273.5 555.854 214.5 621.177 191C616.751 181.233 611.856 171.723 606.521 162.5C574.749 170 552.72 184.426 531.22 214.206C509.72 243.986 506 319.5 499 353.5C492 387.5 458 440.418 376 438.5C290.5 436.5 245.5 425 167.5 418.5C105.1 413.3 53.9202 450.333 34.3097 470.5C34.6087 471.096 34.9095 471.691 35.212 472.285C41.9811 485.577 49.6379 498.342 58.1042 510.5Z" fill="#9631D1"/>
<path d="M195.5 147C127.1 205 53.3334 206.353 25.0001 199.78C15.3182 222.949 8.24199 247.477 4.1377 273C19.5918 269.167 63.1001 265.3 113.5 280.5C176.5 299.5 227 303.5 283.5 249.5C340 195.5 390 173 406 170C422 167 446 169 454.5 180C463 191 459 213.5 422 227C385 240.5 300 275 281 291.5C262 308 210 376.5 174.5 384.5C146.1 390.9 51.5936 395.167 7.89042 396.5C13.0995 419.703 20.7899 441.967 30.6685 463C50.279 442.833 105.1 403.8 167.5 409C245.5 415.5 281.5 426.5 367 428.5C452.5 430.5 485 376 492 342C499 308 502.5 229.56 524 199.78C545.5 170 567.457 158 599.229 150.5C594.301 142.772 589.055 135.265 583.51 128C581.173 126 561 122.5 499 124.5C421.5 127 391.5 131.5 353.5 150.5C315.5 169.5 287.5 208.5 255.5 231C229.9 249 189.167 251.833 172 251C264.5 242.5 287 183.5 331 154.5C375 125.5 406 118.5 454.5 116.5C493.3 114.9 543.506 107.833 563.759 104.5C557.149 97.3465 550.222 90.4908 543 83.955C538.167 92.8033 507.2 106.6 422 90.9999C315.5 71.4999 281 74.4999 195.5 147Z" fill="#9631D1"/>
<path d="M484.5 41.765C472.5 43.9756 435.6 44.2175 384 27.4999C319.5 6.60303 271 48.4999 263.5 60.9999C256.506 72.6562 212.991 119.965 202.689 129.947C219.351 114.722 254.862 85.1142 276.5 76.9999C304.5 66.4999 322 62.9999 362.5 67.4999C403 71.9999 468.942 98.9571 526.971 70.361C513.627 59.7624 499.43 50.1905 484.5 41.765Z" fill="#9631D1"/>
<path d="M96.3868 93.9999C140.324 50.514 196.603 19.4739 259.5 6.60303C261.591 24.402 231.896 66.7999 96.3868 93.9999Z" fill="#9631D1"/>
<path d="M190 620.722C207.167 613.572 251.8 602.017 293 613C344.5 626.729 358.5 639.165 395.5 642.332C416.503 637.687 436.741 631.01 456 622.518C417 632.036 373.5 613 347.5 605.648C321.5 598.295 288 588 242.5 584.5C206.1 581.7 173 597.432 161 605.648C170.377 611.139 180.054 616.174 190 620.722Z" fill="#9631D1"/>
<path d="M325 650C282.235 650 241.399 641.74 204 626.729C231 619.226 300.5 612.948 362.5 647.86C350.196 649.273 337.683 650 325 650Z" fill="#9631D1"/>
<path d="M204 626.729C231 619.226 300.5 612.948 362.5 647.86C373.683 646.575 384.692 644.723 395.5 642.332C358.5 639.165 344.5 626.729 293 613C251.8 602.017 207.167 613.572 190 620.722C194.61 622.83 199.278 624.833 204 626.729Z" fill="#AF52E5"/>
<path d="M167.5 437.5C115.1 438.3 72.7361 486.5 58.1041 510.5C85.0444 549.189 120.182 581.744 161 605.648C173 597.432 206.1 581.7 242.5 584.5C288 588 321.5 598.295 347.5 605.648C373.5 613 417 632.036 456 622.518C557.317 577.843 631.503 482.932 647 369.344C577 392.188 543 513.5 471 524C413.4 532.4 364.667 527.5 347.5 524C445 527.5 480 510.5 499 499C518 487.5 543 453 566.5 419.5C585.3 392.7 629.368 362 649.053 350C649.68 341.749 650 333.412 650 325C650 277.225 639.691 231.857 621.177 191C555.854 214.5 541 273.5 530.5 356.5C520 439.5 451 484 362.5 470.5C274 457 233 436.5 167.5 437.5Z" fill="#AF52E5"/>
<path d="M325 0C302.563 0 280.657 2.27364 259.5 6.60308C261.591 24.4021 231.896 66.8 96.3868 94C66.1036 123.972 41.6834 159.857 25 199.78C53.3333 206.353 127.1 205 195.5 147C281 74.5 315.5 71.5 422 91C507.2 106.6 538.167 92.8034 543 83.9551C537.807 79.2555 532.461 74.7214 526.971 70.3611C468.942 98.9572 403 72 362.5 67.5C322 63 304.5 66.5 276.5 77C254.862 85.1143 219.351 114.722 202.689 129.947C201.943 130.669 201.371 131.196 201 131.5C201.539 131.001 202.102 130.483 202.689 129.947C212.991 119.965 256.506 72.6563 263.5 61C271 48.5 319.5 6.60308 384 27.5C435.6 44.2175 472.5 43.9757 484.5 41.765C437.381 15.1735 382.962 0 325 0Z" fill="#AF52E5"/>
<path d="M4.13763 273C1.41485 289.932 0 307.301 0 325C0 349.565 2.72541 373.494 7.89036 396.5C51.5936 395.167 146.1 390.9 174.5 384.5C210 376.5 262 308 281 291.5C300 275 385 240.5 422 227C459 213.5 463 191 454.5 180C446 169 422 167 406 170C390 173 340 195.5 283.5 249.5C227 303.5 176.5 299.5 113.5 280.5C63.1 265.3 19.5918 269.167 4.13763 273Z" fill="#621090"/>
<path d="M30.6684 463C31.851 465.518 33.0649 468.018 34.3096 470.5C53.9201 450.333 105.1 413.3 167.5 418.5C245.5 425 290.5 436.5 376 438.5C458 440.418 492 387.5 499 353.5C506 319.5 509.719 243.986 531.219 214.206C552.719 184.426 574.749 170 606.521 162.5C604.174 158.444 601.743 154.443 599.229 150.5C567.457 158 545.5 170 524 199.78C502.5 229.56 499 308 492 342C485 376 452.5 430.5 367 428.5C281.5 426.5 245.5 415.5 167.5 409C105.1 403.8 50.2789 442.833 30.6684 463Z" fill="#621090"/>
<path d="M563.759 104.5C543.506 107.833 493.3 114.9 454.5 116.5C406 118.5 375 125.5 331 154.5C287 183.5 264.5 242.5 172 251C189.167 251.833 229.9 249 255.5 231C287.5 208.5 315.5 169.5 353.5 150.5C391.5 131.5 421.5 127 499 124.5C561 122.5 581.173 126 583.509 128C577.293 119.856 570.701 112.014 563.759 104.5Z" fill="#621090"/>
<path d="M187.278 574.317C197.264 567.65 201.36 554.491 199.656 539.329C198.45 548.941 194.335 556.894 187.278 561.605C169.734 573.317 140.657 560.561 122.332 533.113C114.439 521.289 109.828 508.668 108.538 497.194C106.746 511.476 111.379 529.418 122.332 545.824C140.657 573.272 169.734 586.029 187.278 574.317Z" fill="#611090"/>
<path d="M185.862 503.411C167.537 475.962 138.46 463.206 120.917 474.918C113.86 479.63 109.744 487.583 108.538 497.194C109.827 508.668 114.439 521.289 122.332 533.113C140.657 560.561 169.734 573.317 187.277 561.605C194.335 556.894 198.45 548.941 199.656 539.329C198.367 527.855 193.756 515.234 185.862 503.411Z" fill="#9631D1"/>
<ellipse cx="599.334" cy="269.14" rx="20.9112" ry="24.9687" transform="rotate(-31.2592 599.334 269.14)" fill="#9631D1"/>
<path d="M463.325 255.523C458.422 245.568 447.418 240.959 438.748 245.229C432.093 248.507 428.747 256.063 429.768 263.9C430.53 258.206 433.679 253.229 438.748 250.732C447.418 246.462 458.422 251.071 463.325 261.027C464.465 263.341 465.175 265.741 465.484 268.114C466.026 264.068 465.362 259.659 463.325 255.523Z" fill="#430E61"/>
<path d="M431.926 270.988C436.83 280.943 447.833 285.552 456.504 281.282C461.572 278.786 464.721 273.808 465.484 268.114C465.175 265.741 464.465 263.341 463.325 261.027C458.422 251.071 447.418 246.462 438.747 250.732C433.679 253.229 430.53 258.206 429.768 263.9C430.077 266.274 430.787 268.673 431.926 270.988Z" fill="#611090"/>
<ellipse cx="460.459" cy="140.919" rx="9.19545" ry="9.34968" transform="rotate(-40.0213 460.459 140.919)" fill="#611090"/>
</svg>
