<svg width="367" height="416" viewBox="0 0 367 416" fill="none" xmlns="http://www.w3.org/2000/svg">
<path d="M32.7843 147.602C33.2846 155.197 40.9849 169.957 67.7843 168.244C65.2243 163.065 63.2991 157.957 61.757 152.949C44.1355 152.426 34.9104 142.167 32.5006 137.102C32.5846 141.475 32.6898 145.098 32.7843 147.602Z" fill="#4BADE2"/>
<path d="M113.784 213.104C172.284 239.104 246.784 218.604 253.784 213.104C255.39 211.843 258.838 210.265 263.284 207.593C267.155 205.265 271.783 202.107 276.608 197.604C285.66 189.158 293.896 183.395 300.608 166.102C302.077 162.319 303.472 157.984 304.788 152.949C306.615 145.952 308.287 137.603 309.784 127.502C301.068 161.902 280.784 213.104 179.784 216.104C98.984 218.504 63.4508 158.036 55.7841 127.502C57.5045 135.569 59.0331 144.103 61.757 152.949C63.2991 157.957 65.2243 163.065 67.7843 168.244C72.5306 177.846 79.459 187.693 90.1736 197.604C93.5446 200.723 97.238 203.64 101.284 206.296C105.124 208.817 109.283 211.104 113.784 213.104Z" fill="#4BADE2"/>
<path d="M300.608 166.102C321.284 168.244 333.784 159.102 333.784 147.602C333.784 144.465 333.822 140.992 333.866 137.102C329.602 142.385 317.817 152.949 304.788 152.949C303.472 157.984 302.077 162.319 300.608 166.102Z" fill="#4BADE2"/>
<path d="M280.784 278.604C285.451 299.771 302.52 339.854 324.784 351.604C336.998 358.05 356.537 353.526 363.648 336.933C325.366 356.797 292.454 306.324 280.784 278.604Z" fill="#4BADE2"/>
<path d="M84.7836 278.604C97.7836 333.604 114.284 376.104 138.284 397.604C162.284 419.104 205.284 422.604 227.784 397.604C250.284 372.604 271.784 336.604 280.784 278.604C272.784 311.104 238.784 352.104 221.784 361.104C204.784 370.104 172.784 376.104 145.284 361.104C114.941 344.554 91.7836 300.271 84.7836 278.604Z" fill="#4BADE2"/>
<path d="M42.2843 351.604C61.8843 344.404 79.2843 303.604 84.7836 278.604C74.8778 308.657 45.0097 362.396 4.7832 336.933C11.801 350.608 27.4729 357.045 42.2843 351.604Z" fill="#4BADE2"/>
<path fill-rule="evenodd" clip-rule="evenodd" d="M309.784 127.502C312.846 106.845 310.444 89.041 305.067 74.1025C293.491 41.9429 268.123 23.0653 253.784 17.6027C245.575 13.4689 232.801 8.6843 217.284 5.3164C214.451 14.4118 206.684 33.7025 198.284 38.1025C187.784 43.6025 173.784 40.1025 163.284 38.1025C154.884 36.5025 148.118 14.7805 145.784 4.11943C135.121 6.27521 124.357 9.65845 113.784 14.6027C84.6993 28.2034 69.3514 51.3814 61.7568 74.1025C54.8331 94.8165 54.3534 115.151 55.784 127.502C63.4506 158.036 98.9839 218.504 179.784 216.104C280.783 213.105 301.068 161.902 309.784 127.502ZM179.784 195.104C116.184 193.104 89.2837 149.938 83.7837 128.605C81.1611 118.77 79.0615 101.627 83.7837 86.9008C86.264 79.1657 90.6264 72.0972 97.7837 67.1046C123.04 49.4869 141.694 62.4356 151.784 66.1044C168.283 72.1041 203.914 68.6339 212.784 67.1046C227.283 64.6044 244.284 47.1046 268.284 67.1046C275.225 72.8886 279.447 79.8018 281.895 86.9008C287.875 104.245 283.261 122.698 281.809 128.502L281.784 128.605C279.784 136.605 259.284 197.604 179.784 195.104Z" fill="#8BD4FC"/>
<path fill-rule="evenodd" clip-rule="evenodd" d="M253.501 213.411C246.501 218.911 172 239.411 113.5 213.411C108.999 211.411 104.841 209.124 101 206.603C98.4741 208.085 95.471 210.673 92.5787 214.447C84.2112 225.367 76.7714 246.213 84.5 278.911C91.5 300.578 114.658 344.861 145 361.411C172.5 376.411 204.5 370.411 221.5 361.411C238.5 352.411 272.5 311.411 280.5 278.911C285.535 246.463 279.289 226.791 272.057 216.411C268.948 211.948 265.656 209.203 263 207.899C258.555 210.572 255.107 212.149 253.501 213.411ZM179.784 333.603C161.783 333.203 156.333 322.911 148.001 305.411C145.116 299.353 144.056 294.605 144.255 290.909C144.764 281.49 153.459 278.911 161.001 278.911H200.501C216.123 278.911 219.59 283.827 219.717 290.909C219 298.103 219.717 299.603 217.217 305.411C209.04 324.41 199.5 334.041 179.784 333.603Z" fill="#8BD4FC"/>
<path d="M92.5787 214.447C95.471 210.673 98.4741 208.085 101 206.603C96.9544 203.946 93.5445 200.723 90.1734 197.604C52.7842 223.604 14.2824 278.104 4.78307 302.104C-0.695105 315.945 0.192545 327.988 4.78307 336.933C45.0095 362.396 74.5942 308.963 84.5 278.911C76.7714 246.213 84.2112 225.367 92.5787 214.447Z" fill="#8BD4FC"/>
<path d="M272.057 216.411C279.289 226.791 285.535 246.463 280.5 278.911C292.171 306.631 325.366 356.797 363.648 336.933C367.017 329.071 367.596 318.501 363.284 305.104C349.284 261.604 309.784 224.104 276.608 197.604C271.783 202.107 266.871 205.572 263 207.899C265.656 209.203 268.948 211.948 272.057 216.411Z" fill="#8BD4FC"/>
<path d="M305.067 74.1025C310.444 89.041 312.846 106.845 309.784 127.502C308.287 137.603 306.615 145.952 304.787 152.949C317.817 152.949 329.602 142.385 333.865 137.103L333.874 136.341C333.99 126.088 334.139 112.984 333.784 95.6025C333.566 84.8901 326.813 79.1663 321.284 76.3413C316.697 73.9975 308.576 73.6491 305.067 74.1025Z" fill="#8BD4FC"/>
<path d="M55.784 127.502C54.3534 115.151 54.8331 94.8165 61.7568 74.1025C57.2897 73.4638 50.6366 73.6895 44.8293 76.3413C38.5151 79.2245 33.2009 84.9759 32.7842 95.6025C32.211 110.22 32.2881 126.052 32.5004 137.103C34.9103 142.167 44.1354 152.426 61.7568 152.949C59.033 144.103 57.5044 135.569 55.784 127.502Z" fill="#8BD4FC"/>
<path d="M55.784 127.502C54.3534 115.151 54.8331 94.8165 61.7568 74.1025M55.784 127.502C63.4506 158.036 98.9839 218.504 179.784 216.104C280.783 213.105 301.068 161.902 309.784 127.502M55.784 127.502C57.5044 135.569 59.033 144.103 61.7568 152.949M309.784 127.502C312.846 106.845 310.444 89.041 305.067 74.1025M309.784 127.502C308.287 137.603 306.615 145.952 304.787 152.949M101 206.603C104.841 209.124 108.999 211.411 113.5 213.411C172 239.411 246.501 218.911 253.501 213.411C255.107 212.149 258.555 210.572 263 207.899M101 206.603C98.4741 208.085 95.471 210.673 92.5787 214.447C84.2112 225.367 76.7714 246.213 84.5 278.911M101 206.603C96.9544 203.946 93.5445 200.723 90.1734 197.604M84.5 278.911C97.5 333.911 114.284 376.104 138.284 397.604C162.284 419.104 205.284 422.604 227.784 397.604C250.284 372.604 271.5 336.911 280.5 278.911M84.5 278.911C91.5 300.578 114.658 344.861 145 361.411C172.5 376.411 204.5 370.411 221.5 361.411C238.5 352.411 272.5 311.411 280.5 278.911M84.5 278.911C79.0007 303.911 61.8842 344.404 42.2842 351.604C27.4727 357.045 11.8009 350.608 4.78307 336.933M84.5 278.911C74.5942 308.963 45.0095 362.396 4.78307 336.933M280.5 278.911C285.535 246.463 279.289 226.791 272.057 216.411C268.948 211.948 265.656 209.203 263 207.899M280.5 278.911C285.167 300.078 302.52 339.854 324.784 351.604C336.998 358.05 356.537 353.526 363.648 336.933M280.5 278.911C292.171 306.631 325.366 356.797 363.648 336.933M263 207.899C266.871 205.572 271.783 202.107 276.608 197.604M90.1734 197.604C52.7842 223.604 14.2824 278.104 4.78307 302.104C-0.695105 315.945 0.192545 327.988 4.78307 336.933M90.1734 197.604C79.4589 187.693 72.5305 177.846 67.7842 168.244M200.501 278.911C184.001 278.911 165.334 278.911 161.001 278.911M200.501 278.911H161.001M200.501 278.911C216.123 278.911 219.59 283.827 219.717 290.909M161.001 278.911C153.459 278.911 144.764 281.49 144.255 290.909M276.608 197.604C309.784 224.104 349.284 261.604 363.284 305.104C367.596 318.501 367.017 329.071 363.648 336.933M276.608 197.604C285.66 189.158 293.896 183.395 300.608 166.103M305.067 74.1025C293.491 41.9429 268.123 23.0653 253.784 17.6027C245.575 13.4689 232.801 8.6843 217.284 5.3164M305.067 74.1025V10.6025C305.619 10.6624 306.28 10.8106 307 11.0691M305.067 74.1025C306.231 73.9521 307.902 73.89 309.784 73.9596M305.067 74.1025C308.576 73.6491 316.697 73.9975 321.284 76.3413M300.608 166.103C321.284 168.244 333.784 159.103 333.784 147.603C333.784 144.465 333.821 140.992 333.865 137.103M300.608 166.103C302.077 162.319 303.472 157.984 304.787 152.949M321.284 76.3413C326.813 79.1663 333.566 84.8901 333.784 95.6025C334.139 112.984 333.99 126.088 333.874 136.341M321.284 76.3413C320.951 62.7617 316.984 33.2025 315.784 23.6025C314.8 15.7276 310.286 12.249 307 11.0691M321.284 76.3413C318.219 74.775 313.575 74.0998 309.784 73.9596M145.784 4.11943C135.121 6.27521 124.357 9.65845 113.784 14.6027C84.6993 28.2034 69.3514 51.3814 61.7568 74.1025M145.784 4.11943C148.118 14.7805 154.884 36.5025 163.284 38.1025C173.784 40.1025 187.784 43.6025 198.284 38.1025C206.684 33.7025 214.451 14.4118 217.284 5.3164M145.784 4.11943C171.605 -1.10108 196.829 0.876697 217.284 5.3164M61.7568 74.1025V10.6025C61.2397 10.6251 60.6453 10.6964 60 10.8276M61.7568 74.1025C60.6279 73.9411 59.3593 73.8349 58 73.8091M61.7568 74.1025C57.2897 73.4638 50.6366 73.6895 44.8293 76.3413M67.7842 168.244C40.9848 169.957 33.2844 155.197 32.7842 147.603C32.6897 145.098 32.5845 141.475 32.5004 137.103M67.7842 168.244C65.2242 163.065 63.2989 157.957 61.7568 152.949M44.8293 76.3413C38.5151 79.2245 33.2009 84.9759 32.7842 95.6025C32.211 110.22 32.2881 126.052 32.5004 137.103M44.8293 76.3413C45.3143 62.9284 46.6842 33.6025 48.2842 23.6025C49.6678 14.9549 55.8737 11.6666 60 10.8276M44.8293 76.3413C49.1689 74.3597 53.9809 73.7328 58 73.8091M32.5004 137.103C34.9103 142.167 44.1354 152.426 61.7568 152.949M333.865 137.103C329.602 142.385 317.817 152.949 304.787 152.949M333.865 137.103L333.874 136.341M333.865 137.103C333.868 136.851 333.871 136.597 333.874 136.341M58 73.8091L60 10.8276M309.784 73.9596L307 11.0691M144.255 290.909C144.056 294.605 145.116 299.353 148.001 305.411C156.333 322.911 161.783 333.203 179.784 333.603C199.5 334.041 209.04 324.41 217.217 305.411C219.717 299.603 219 298.103 219.717 290.909M144.255 290.909C148.098 301.576 160.811 324.103 179.784 324.103C199.821 324.103 207 314.103 219.717 290.909M83.7837 128.605C89.2837 149.938 116.184 193.104 179.784 195.104C259.284 197.604 279.784 136.605 281.784 128.605L281.809 128.502C283.261 122.698 287.875 104.245 281.895 86.9008C279.447 79.8018 275.225 72.8886 268.284 67.1046C244.284 47.1046 227.283 64.6044 212.784 67.1046C203.914 68.6339 168.283 72.1041 151.784 66.1044C141.694 62.4356 123.04 49.4869 97.7837 67.1046C90.6264 72.0972 86.264 79.1657 83.7837 86.9008C79.0615 101.627 81.1611 118.77 83.7837 128.605Z" stroke="#4BADE2"/>
<path d="M83.784 128.605C89.284 149.938 116.184 193.105 179.784 195.105C259.284 197.605 279.784 136.605 281.784 128.605L281.81 128.502C282.63 125.223 284.459 117.906 284.818 109.032C284.598 103.816 283.764 98.2889 281.895 92.8698C279.448 85.7708 275.225 78.8576 268.284 73.0736C250.441 58.2041 236.466 64.0628 224.512 69.0746C220.387 70.8038 216.503 72.4322 212.784 73.0736C203.915 74.6029 168.284 78.0731 151.784 72.0734C150.359 71.5552 148.763 70.852 147.002 70.0759C136.294 65.3568 119.473 57.9441 97.784 73.0736C90.6268 78.0662 86.2644 85.1347 83.784 92.8698C82.0502 98.2768 81.236 104.01 81.0297 109.587C81.2921 116.943 82.4727 123.687 83.784 128.605Z" fill="#CCECF6"/>
<path d="M268.284 67.1048C244.284 47.1048 227.284 64.6046 212.784 67.1048C203.915 68.6341 168.284 72.1044 151.784 66.1046C141.695 62.4359 123.04 49.4872 97.784 67.1048C90.6268 72.0975 86.2644 79.1659 83.784 86.901C81.423 94.2641 80.7673 102.231 81.0297 109.587C81.236 104.01 82.0502 98.2768 83.784 92.8698C86.2644 85.1347 90.6268 78.0662 97.784 73.0736C119.473 57.9441 136.294 65.3568 147.002 70.0759C148.763 70.852 150.359 71.5552 151.784 72.0734C168.284 78.0731 203.915 74.6029 212.784 73.0736C216.503 72.4322 220.387 70.8038 224.512 69.0746C236.466 64.0628 250.441 58.2041 268.284 73.0736C275.225 78.8576 279.448 85.7708 281.895 92.8698C283.764 98.2889 284.598 103.816 284.818 109.032C285.093 102.2 284.497 94.4458 281.895 86.901C279.448 79.8021 275.225 72.8889 268.284 67.1048Z" fill="#B4DBE7"/>
<path d="M148.001 305.411C156.334 322.911 161.784 333.202 179.784 333.602C199.501 334.041 209.04 324.41 217.217 305.411C219.717 299.602 219.001 298.102 219.717 290.909C207.001 314.102 199.822 324.102 179.784 324.102C160.811 324.102 148.099 301.576 144.256 290.909C144.056 294.605 145.117 299.353 148.001 305.411Z" fill="#4BADE2"/>
<path d="M200.501 278.911H161.001C153.46 278.911 144.765 281.49 144.256 290.909C148.099 301.576 160.811 324.103 179.784 324.103C199.822 324.103 207.001 314.103 219.717 290.909C219.59 283.827 216.124 278.911 200.501 278.911Z" fill="#4BADE2"/>
<path d="M145.784 4.11943C148.118 14.7805 154.884 36.5025 163.284 38.1025C173.784 40.1025 187.784 43.6025 198.284 38.1025C206.684 33.7025 214.451 14.4118 217.284 5.3164C196.829 0.876697 171.605 -1.10108 145.784 4.11943Z" fill="#4BADE2"/>
<path d="M61.7568 74.1025V10.6025C61.2397 10.6251 60.6453 10.6964 60 10.8276L58 73.8091C59.3593 73.8349 60.6279 73.9411 61.7568 74.1025Z" fill="#2F98D1"/>
<path d="M305.067 10.6025V74.1025C306.231 73.9521 307.902 73.89 309.784 73.9596L307 11.0691C306.28 10.8106 305.619 10.6624 305.067 10.6025Z" fill="#2F98D1"/>
<path d="M321.284 76.3408C320.951 62.7613 316.984 33.2021 315.784 23.6021C314.8 15.7272 310.286 12.2486 307 11.0686L309.784 73.9591C313.575 74.0994 318.219 74.7745 321.284 76.3408Z" fill="#4BADE2"/>
<path d="M48.284 23.6021C46.684 33.6021 45.3141 62.9279 44.8291 76.3408C49.1687 74.3593 53.9806 73.7324 57.9998 73.8087L59.9998 10.8271C55.8735 11.6661 49.6676 14.9544 48.284 23.6021Z" fill="#4BADE2"/>
<g filter="url(#filter0_f_285_2)">
<path d="M251.439 127.18C249.039 98.3801 238.772 92.8468 233.939 93.6801C218.439 95.1806 225.439 119.68 226.439 138.68C227.439 157.68 233.696 156.68 238.439 156.68C247.439 156.68 253.839 155.98 251.439 127.18Z" fill="#51C8EF"/>
<path d="M240.438 104.18C239.58 98.7015 236.224 98.0345 234.494 98.193C230.938 98.519 231.581 102.566 231.938 106.18C232.296 109.794 234.407 110.177 236.104 110.177C237.643 110.177 241.297 109.658 240.438 104.18Z" fill="#D9D9D9"/>
</g>
<path d="M251.439 127.18C249.039 98.3801 238.772 92.8468 233.939 93.6801C218.439 95.1806 225.439 119.68 226.439 138.68C227.439 157.68 233.696 156.68 238.439 156.68C247.439 156.68 253.839 155.98 251.439 127.18Z" fill="#08B9F3"/>
<path d="M240.438 104.18C239.58 98.7015 236.224 98.0345 234.494 98.193C230.938 98.519 231.581 102.566 231.938 106.18C232.296 109.794 234.407 110.177 236.104 110.177C237.643 110.177 241.297 109.658 240.438 104.18Z" fill="#D9D9D9"/>
<g filter="url(#filter1_f_285_2)">
<path d="M114.508 127.18C116.908 98.3801 127.175 92.8468 132.008 93.6801C147.508 95.1806 140.508 119.68 139.508 138.68C138.508 157.68 132.252 156.68 127.508 156.68C118.508 156.68 112.108 155.98 114.508 127.18Z" fill="#08B9F3"/>
<path d="M125.509 104.18C126.368 98.7015 129.724 98.0345 131.453 98.193C135.009 98.519 134.367 102.566 134.009 106.18C133.651 109.794 131.54 110.177 129.843 110.177C128.304 110.177 124.65 109.658 125.509 104.18Z" fill="#D9D9D9"/>
</g>
<path d="M114.508 127.18C116.908 98.3801 127.175 92.8468 132.008 93.6801C147.508 95.1806 140.508 119.68 139.508 138.68C138.508 157.68 132.252 156.68 127.508 156.68C118.508 156.68 112.108 155.98 114.508 127.18Z" fill="#08B9F3"/>
<path d="M125.509 104.18C126.368 98.7015 129.724 98.0345 131.453 98.193C135.009 98.519 134.367 102.566 134.009 106.18C133.651 109.794 131.54 110.177 129.843 110.177C128.304 110.177 124.65 109.658 125.509 104.18Z" fill="#D9D9D9"/>
<defs>
<filter id="filter0_f_285_2" x="220" y="89.6025" width="35.9473" height="71.0859" filterUnits="userSpaceOnUse" color-interpolation-filters="sRGB">
<feFlood flood-opacity="0" result="BackgroundImageFix"/>
<feBlend mode="normal" in="SourceGraphic" in2="BackgroundImageFix" result="shape"/>
<feGaussianBlur stdDeviation="2" result="effect1_foregroundBlur_285_2"/>
</filter>
<filter id="filter1_f_285_2" x="110" y="89.6025" width="35.9473" height="71.0859" filterUnits="userSpaceOnUse" color-interpolation-filters="sRGB">
<feFlood flood-opacity="0" result="BackgroundImageFix"/>
<feBlend mode="normal" in="SourceGraphic" in2="BackgroundImageFix" result="shape"/>
<feGaussianBlur stdDeviation="2" result="effect1_foregroundBlur_285_2"/>
</filter>
</defs>
</svg>
