<svg width="45" height="55" viewBox="0 0 45 55" fill="none" xmlns="http://www.w3.org/2000/svg">
<path fill-rule="evenodd" clip-rule="evenodd" d="M15.7322 0.732225C16.2011 0.2634 16.837 0 17.5 0H37.5C41.6423 0 45 3.35788 45 7.5V47.5C45 51.6423 41.6423 55 37.5 55H7.5C3.35788 55 0 51.6423 0 47.5V17.5C0 16.837 0.2634 16.2011 0.732225 15.7322L15.7322 0.732225ZM37.5 5H20V17.5C20 18.8807 18.8807 20 17.5 20H5V47.5C5 48.8807 6.1193 50 7.5 50H37.5C38.8807 50 40 48.8807 40 47.5V7.5C40 6.1193 38.8807 5 37.5 5ZM8.53552 15H15V8.53552L8.53552 15ZM10 30C10 28.6193 11.1193 27.5 12.5 27.5H32.5C33.8807 27.5 35 28.6193 35 30C35 31.3807 33.8807 32.5 32.5 32.5H12.5C11.1193 32.5 10 31.3807 10 30ZM10 40C10 38.6193 11.1193 37.5 12.5 37.5H32.5C33.8807 37.5 35 38.6193 35 40C35 41.3807 33.8807 42.5 32.5 42.5H12.5C11.1193 42.5 10 41.3807 10 40Z" fill="white"/>
</svg>
