<svg width="46" height="46" viewBox="0 0 46 46" fill="none" xmlns="http://www.w3.org/2000/svg">
<path d="M28.6597 32.8438L24.4895 28.7085C22.4773 26.7127 21.471 25.715 20.3165 25.3502C19.301 25.0295 18.2095 25.0412 17.2012 25.384C16.0547 25.7737 15.0703 26.793 13.1017 28.8315L3.11022 38.7002M28.6597 32.8438L29.5132 31.9975C31.528 29.9995 32.5353 29.0005 33.6913 28.6358C34.7078 28.315 35.8 28.3277 36.809 28.6717C37.956 29.0627 38.9403 30.0847 40.9085 32.1285L43 34.2335M28.6597 32.8438L38.6875 42.8912M3.11022 38.7002C3.1878 39.3302 3.3199 39.8283 3.54497 40.27C4.02432 41.2108 4.78923 41.9757 5.73005 42.455C6.7996 43 8.19972 43 11 43H35C36.6357 43 37.794 43 38.6875 42.8912M3.11022 38.7002C3 37.8052 3 36.6437 3 35V11C3 8.19975 3 6.7996 3.54497 5.73005C4.02432 4.78923 4.78923 4.02432 5.73005 3.54497C6.7996 3 8.19972 3 11 3H35C37.8002 3 39.2005 3 40.27 3.54497C41.2108 4.02432 41.9757 4.78923 42.455 5.73005C43 6.7996 43 8.19975 43 11V34.2335M43 34.2335V35C43 37.8002 43 39.2005 42.455 40.27C41.9757 41.2108 41.2108 41.9757 40.27 42.455C39.8253 42.6817 39.3232 42.814 38.6875 42.8912M35.5 15.4997C35.5 18.2613 33.2615 20.4997 30.5 20.4997C27.7385 20.4997 25.5 18.2613 25.5 15.4997C25.5 12.7383 27.7385 10.4997 30.5 10.4997C33.2615 10.4997 35.5 12.7383 35.5 15.4997Z" stroke="white" stroke-width="5" stroke-linecap="round" stroke-linejoin="round"/>
</svg>
