<svg width="60" height="59" viewBox="0 0 60 59" fill="none" xmlns="http://www.w3.org/2000/svg">
<path d="M57.4646 10.1122L49.7922 2.52067C46.3963 -0.822595 40.8819 -0.845172 37.4784 2.48304L28.965 10.7876C25.5559 14.1139 25.5409 19.5324 28.9274 22.8737L33.7927 18.2003C33.2998 16.7121 33.9075 15.0076 35.1116 13.8279L40.5282 8.54682C42.244 6.88177 44.9965 6.8893 46.6898 8.56563L51.2974 13.1186C52.9906 14.795 52.9831 17.4948 51.2785 19.1636L45.862 24.4485C44.7162 25.566 42.8348 26.1794 41.3748 25.7862L36.6092 30.4633C40.0014 33.8141 45.512 33.8292 48.923 30.501L57.427 22.204C60.8455 18.872 60.8568 13.4592 57.4646 10.1122Z" fill="white"/>
<path d="M26.2934 40.5044C26.6979 41.9588 26.0507 43.8402 24.8786 44.9841L19.8195 49.9265C18.0848 51.6198 15.2778 51.6104 13.5507 49.9039L8.85089 45.2738C7.12752 43.5692 7.13881 40.7979 8.87347 39.1122L13.9363 34.1697C15.1705 32.9713 16.9428 32.3617 18.4893 32.8734L23.3697 28.0382C19.9155 24.631 14.2938 24.614 10.8245 28.0006L2.6159 36.0154C-0.857177 39.4076 -0.874109 44.922 2.57828 48.3367L10.3936 56.0637C13.8442 59.4671 19.462 59.4841 22.9389 56.0975L31.1475 48.0827C34.6168 44.6868 34.6318 39.1762 31.1851 35.7652L26.2934 40.5044Z" fill="white"/>
<path d="M20.9578 38.2994C22.1073 39.4602 23.9887 39.4715 25.1608 38.3145L39.1867 24.3619C40.3551 23.2011 40.3626 21.3235 39.2018 20.1589C38.0485 19.0018 36.1708 18.9943 35.0062 20.1476L20.9766 34.0963C19.8101 35.2534 19.8026 37.1311 20.9578 38.2994Z" fill="white"/>
</svg>
