<svg width="51" height="46" viewBox="0 0 51 46" fill="none" xmlns="http://www.w3.org/2000/svg">
<path d="M25.5 19V43M25.5 19C25.5 13.3995 25.5 10.5992 24.41 8.4601C23.4513 6.57848 21.9215 5.04867 20.0399 4.08992C17.9008 3 15.1005 3 9.5 3H7C5.59987 3 4.8998 3 4.36503 3.27248C3.89463 3.51218 3.51217 3.89463 3.27247 4.36503C3 4.8998 3 5.59987 3 7V34C3 35.4002 3 36.1003 3.27247 36.635C3.51217 37.1055 3.89463 37.4878 4.36503 37.7275C4.8998 38 5.59987 38 7 38H14.3667C15.7172 38 16.3924 38 17.0454 38.1165C17.6249 38.2198 18.1903 38.3908 18.7298 38.6265C19.3376 38.8918 19.8994 39.2663 21.023 40.0155L25.5 43M25.5 19C25.5 13.3995 25.5 10.5992 26.59 8.4601C27.5487 6.57848 29.0785 5.04867 30.96 4.08992C33.0993 3 35.8995 3 41.5 3H44C45.4002 3 46.1003 3 46.635 3.27248C47.1055 3.51218 47.4878 3.89463 47.7275 4.36503C48 4.8998 48 5.59987 48 7V34C48 35.4002 48 36.1003 47.7275 36.635C47.4878 37.1055 47.1055 37.4878 46.635 37.7275C46.1003 38 45.4002 38 44 38H36.6333C35.2828 38 34.6075 38 33.9547 38.1165C33.375 38.2198 32.8098 38.3908 32.2703 38.6265C31.6625 38.8918 31.1005 39.2663 29.977 40.0155L25.5 43" stroke="white" stroke-width="5" stroke-linecap="round" stroke-linejoin="round"/>
</svg>
